<?xml version="1.0" encoding="UTF-8"?>
<svg version="1.1" viewBox="0 0 1400 952" width="350" height="238" xmlns="http://www.w3.org/2000/svg">
<path transform="translate(991,264)" d="m0 0h21l9 15 17 29 13 22 34 58 19 32 4 7 1-163h40l1 1v283l-12 1h-7l-3-3-13-22-12-20-10-17-9-15-17-29-12-20-13-22-9-15-1 162-1 1h-40z" fill="#FEFEFE"/>
<path transform="translate(283,264)" d="m0 0h55l18 2 16 4 17 8 11 8 11 11 9 14 6 14 4 15 2 14v26l-2 14-5 16-4 10-6 10-7 9-9 10-5 5 10 19 17 35 19 39-2 2h-48l-8-15-12-26-16-35-13 1h-14v74l-2 1h-41l-1-1zm45 46-1 1v117h16l12-3 10-5 10-9 7-11 4-13 2-12v-9l-2-14-4-12-6-11-9-9-12-6-11-3z" fill="#FEFEFE"/>
<path transform="translate(1253,264)" d="m0 0h129l1 1v43l-2 1h-85v81h72l1 1v42l-2 1h-71v71h92l1 1v42l-2 1h-134l-1-1v-283z" fill="#FEFEFE"/>
<path transform="translate(807,264)" d="m0 0h21l4 10 20 64 23 73 15 48 21 67 6 19v3l-2 1h-41l-3-5-8-17-9-15-8-10-8-7-8-4-9-2h-11l-12 4-8 6-8 8-9 14-11 22-3 5-1 1h-39l-1-2 10-32 10-31 20-64 12-39 10-31 20-64zm9 107-5 14-20 64-8 26v4l5-1 11-3 7-1h22l13 3 9 2-3-12-15-49-12-40-2-7z" fill="#FEFEFE"/>
<path transform="translate(100,264)" d="m0 0h20l3 7 15 47 20 64 22 70 30 96-3 1h-41l-8-16-8-15-9-13-8-8-11-6-9-2h-11l-12 4-9 7-9 10-9 15-11 23-1 1h-39l-1-4 18-57 40-128 17-55 10-31 3-9zm8 107-9 27-20 65-4 12v4l9-2 14-3h23l13 3 5 2h3l-3-12-13-43-14-47-2-6z" fill="#FEFEFE"/>
<path transform="translate(625,262)" d="m0 0h22l9 2 1 1-1 30-1 16-4 1-6-1h-19l-15 3-12 5-9 5-10 8-8 9-8 13-6 15-4 18-1 9v21l2 16 6 20 9 17 11 12 10 8 14 7 13 4 6 1h24l10-2 1 1v47l-4 2-8 1h-31l-17-3-15-5-16-8-13-9-12-11-11-14-8-14-7-15-6-20-3-18-1-10v-29l2-18 5-21 6-16 10-19 10-14 2-3h2l2-4 7-7 13-10 15-9 15-6 15-4z" fill="#FEFEFE"/>
<path transform="translate(939,664)" d="m0 0h16l7 10 15 24 6 9 1-42 1-1h12l1 1v70l-2 1h-9l-5-2-10-15-13-20-3-4-1-1v41l-1 1h-11l-2-1-1-64z" fill="#FEFEFE"/>
<path transform="translate(849,663)" d="m0 0h13l10 4 8 7 4 6-2 4-7 4-6-1-3-5-7-3-10 1-6 4-5 10v12l3 7 7 6 5 2 8-1 6-4 4-7h-20l-1-4 4-8 2-1h31v11l-3 10-6 10-7 6-8 3h-16l-9-4-8-7-6-12-2-7v-13l5-14 9-10 9-5z" fill="#FEFEFE"/>
<path transform="translate(502,663)" d="m0 0h14l9 4 8 6 5 8v2l-10 5-5-1-5-6-6-2-9 1-7 4-4 7-1 4v11l4 8 6 5 6 2 7-1 6-4 3-4 1-3h-20l-1-3 3-7 3-3h31v12l-3 10-5 8-9 8-7 2-9 1-10-2-7-4-6-5-5-9-3-9v-17l4-11 6-8 9-6z" fill="#FEFEFE"/>
<path transform="translate(1008,664)" d="m0 0h22l11 2 10 6 7 9 4 13v12l-4 13-7 9-8 5-8 2-15 1h-11l-1-1zm15 16v40h11l6-3 5-6 2-8v-7l-3-9-7-6-2-1z" fill="#FEFEFE"/>
<path transform="translate(432,664)" d="m0 0h20l15 43 9 25v3l-2 1h-7l-6-2-4-11-25-1-3 13-9 1-6-1 3-12 15-42 2-5-1-6zm13 24-4 9-3 10h14l-3-10-3-9z" fill="#FEFEFE"/>
<path transform="translate(547,664)" d="m0 0h13l1 1v37l1 11 3 5 4 2h7l5-5 1-5 1-46h14l1 1v45l-2 11-6 10-10 5h-16l-8-4-5-6-4-10z" fill="#FEFEFE"/>
<path transform="translate(1084,663)" d="m0 0h12l10 5 5 7 1 4-8 6h-5l-4-5-7-2-5 2-1 7 6 4 13 3 8 6 4 7 1 10-3 9-5 6-5 3-11 2-11-2-6-4-6-7-1-5 5-5 4-3 4 2 2 6 7 2h6l4-4-1-5-5-3-12-3-6-4-6-7-1-5v-9l5-10 7-6z" fill="#FEFEFE"/>
<path transform="translate(780,664)" d="m0 0h37l1 1v13l-1 1h-22v13h21l-1 9-1 4-3 1h-16v15h22l1 1v13l-2 1h-35l-1-1z" fill="#FEFEFE"/>
<path transform="translate(894,664)" d="m0 0h38v14l-1 1h-22v13h20l1 3-2 9-2 2h-16l-1 14 22 1 1 1v13l-2 1h-34l-2-1z" fill="#FEFEFE"/>
<path transform="translate(372,664)" d="m0 0h38v14l-1 1h-23v13h21l-1 11-3 3h-17v14l23 1 1 1v13l-2 1h-35l-1-1z" fill="#FEFEFE"/>
<path transform="translate(609,664)" d="m0 0h37v14l-1 1h-23v13h21l-1 12-3 2h-17v14l23 1 1 1v13l-3 1h-34l-1-1v-70z" fill="#FEFEFE"/>
<path transform="translate(732,664)" d="m0 0h16l1 1v56h24l-2 14-3 1h-35l-1-4 1-4v-57z" fill="#FEFEFE"/>
<path transform="translate(323,664)" d="m0 0h16l1 1v56h24l1 2-3 12-5 1h-32l-2-1 2-8v-56l-2-4z" fill="#FEFEFE"/>
<path transform="translate(674,683)" d="m0 0h8l6 3 4 5 1 2v14l-4 6-5 3h-12l-6-5-3-7v-8l3-7 5-5zm0 9-3 4v7l5 5h6l4-5-1-8-3-3z" fill="#FEFEFE"/>
<path transform="translate(699,684)" d="m0 0h15l2 1v6l-2 1h-9l2 5 7 1-1 7-7 1v9h-8v-30z" fill="#FEFEFE"/>
</svg>
