<?xml version="1.0" encoding="UTF-8"?>
<svg version="1.1" viewBox="0 0 1400 1088" width="350" height="272" xmlns="http://www.w3.org/2000/svg">
<path transform="translate(787,102)" d="m0 0h12l5 5 1 16-2 5-5 8-2 7-1 11v284l1 32 4 5 1 3v13l-1 7-4 3-3 1-63 5h-10l-3-2-2-13 2-10 7-8 4-9 2-8v-43l-6-26-15-53-11-35-4-1-1 27 1 139 4 12 7 6 1 2v18l-3 5-4 2-82 7-53 7h-6l-5-6-2-12v-7l4-6 3-5 2-8 1-9-38 8-2 1v13l2 7 4 6-1 12-2 10-6 4-31 9-31 10h-6l-6-7-1-9 3-11 9-14 3-10 4-33 15-143 12-108 3-23-12 5-9 4h-5l-6-7v-10l5-10 6-7 10-7 21-11 26-10 26-8 21-5h9l3 4 3 16-5 9-1 4v12l9 64 23 148 12 82 5 16v2l4-1 3-13v-306l-3-10-6-6v-20l5-5 31-6 13-2h12l4 5 3 11v10l-4 5v12l3 15 15 49 14 46 1 2 3 1-1-115-2-13-3-6-4-4v-20l4-5 25-3zm-247 155-2 12-10 111-2 24v9l16-4 11-3 2-2-4-66-3-50-2-24-2-7z" fill="#fff"/>
<path transform="translate(359,168)" d="m0 0h21l13 3 13 7 10 9 7 10 5 11 4 16v26l-3 19-4 16-6 15-9 16-7 8v2l13 5 9 7 8 8 7 11 6 15 5 22 2 23v17l-2 25-4 25-6 21-5 13-9 15-8 10-9 9-15 10-16 8-20 8-30 9-35 10-22 8-20 10h-8l-5-4-2-6 1-9 6-9 3-8 2-20 2-74 1-26 1-5-17 8-13 4-1 1v17l-4 12-5 9-7 7-10 5-8 2h-22l-12-3-4-2 1-4 9-6 4-2 2-4 11-21 5-6 8-5 1-2-9-2-17-9-12-10-10-13-7-15-2-7-1-17 3-16 5-12 7-10 9-8 13-6 8-2h17l11 3 12 6 10 9 5 8 3 9 1 12-3 7-4 5-5 2h-7l-7-4-7-10-6-8-4-3-3-1h-9l-7 4-5 8-1 3v13l7 14 8 8 10 5 3 1h19l12-5 9-6 8-10 5-12 3-15 1-19 1-50 1-19-11 3-7 1h-15l-15-3-12-5-9-5-10-8-9-10-4-8 1-4 3-1 13 2h16l13-3 13-5 19-10 17-12 12-9 14-11 15-11 20-12 18-8 14-4zm-1 62-10 3-11 6-13 8-1 1-2 43-2 57v9l5-2 12-9 11-11 9-14 7-15 5-18 2-12 1-22-2-14-5-8-3-2zm-11 168-16 4-12 5-1 2-3 64-1 28v22l3 1 15-4 16-7 13-7 10-8 7-7 8-14 5-16 1-8v-25l-3-12-5-8-7-6-11-4z" fill="#fff"/>
<path transform="translate(1225,454)" d="m0 0h2l1 2 2 21v21l-3 17-5 13-8 13-9 11-14 10v1l14 3 12 5 14 9 9 10 8 15 4 14 2 14v12l-3 17-6 15-8 12-12 12-11 7-11 5-11 3-14 1-16-3-12-6-11-10-7-11-3-9-1-12 3-13 6-10 10-9 10-5 3-1h14l8 4 6 7 1 8-3 6-3 3-3 1-15 1-5 3-2 4v6l5 8 9 5 5 1h10l10-3 9-6 5-5 4-5 5-12 1-6v-12l-4-12-6-9-9-8-7-3-5-1h-14l-11 3-13 7-14 10-13 11-8 7-19 19h-2v2h-2v2l-8 7-8 8-11 9-7 5v1l15 2 12 4 14 8 15 10 9 4 5 2v3l-12 9-15 8-12 3-16-1-15-5-12-7-10-10-6-10-5 1-9 5h-2l-1 77 30-6 20-6 14-7 8-6 9 1 6 4 8 16 4 15 1 7v30l-4 4-15 3-33 4-25 2-23 1h-56l-12-1-5-5-2-3-1-10 2-7 3-3h2l2-7 1-43v-36l-30-10-12-7-12-9-10-9-10-10-7-12-2-7 1-8 3-3 6 1 13 9 14 7 15 4 9 1h16l4-1 1-4v-77l-1-36-2-10-4-6-17-16-5-8-1-5 3-7 4-4 4-2 32-1 20-4 50-12 42-11 27-9 14-5 6 1 6 4 3 7v13l-3 21-7 21-6 10h-2v2l-6 1-17-5-16-1-14 2-43 13-1 108 16-9 17-12 11-9 10-9 8-7 10-9 22-18 18-12 18-10 6-3h2l-1-14v-23l2-13 5-13 9-14 9-8 18-10 14-8 10-8 5-6z" fill="#fff"/>
<path transform="translate(700,539)" d="m0 0h25l13 2 6 4 3 6 1 5v9l-6 7-8 1h-10l-6 3-3 5v11l4 36 10 73 17 114 4 17 5 8 5 4 2 6v10l-2 4-7 3-27 1h-48l-4-2-3-9-1-15 6-7 1-2v-8h-26l-19 1 1 6 6 8v20l-4 5-2 1h-39l-36-3-5-2-2-2v-12l3-7 7-7 4-11 1-3v-8l-12-9-9-9-9-14-5-11-2-9v-8l2-7h4l16 11 12 5 12 3 9-52 15-91 5-33v-9l-3-5-3-3-1-3 3-15 5-5 27-3zm-46 85-3 18-14 126v5h34v-14l-9-126-1-8-1-1z" fill="#fff"/>
<path transform="translate(821,101)" d="m0 0 44 5 24 4 12 4 11 6 9 7 9 9 7 10 9 17 9 27 5 24 4 31 2 26 1 31v23l-1 24-4 34-6 29-6 19-8 18-7 12-8 10-2 3h-2v2l-13 10-10 5-20 4-52 6h-10l-3-3-1-2-1-20 7-9 3-12 1-254v-49l-2-15-5-9-2-2v-18l3-6zm58 71v76l1 175 1 6 4-1 7-6 8-14 6-16 5-21 3-24 1-14v-51l-2-29-4-27-5-19-7-16-8-12-8-7z" fill="#fff"/>
<path transform="translate(557,552)" d="m0 0h8l5 5 2 9v14l-2 16-4 12-6 12-8 7-7-1-5-5-5-7-6-3-13 1-11 2 1 215 3 8 7 6 1 3v9l-4 7-3 2h-37l-27-2-12-2-3-3-1-5v-9l7-8 2-6v-190l-2-7-10-3h-12l-22 3-21 6-17 9-11 8-10 9-8 10-5 11-2 9-1 14 2 16 5 13 6 9 9 8 10 4 4 1h15l10-4 5-5 1-5-3-7-22-14-4-6v-11l4-7 9-6 3-1h15l10 4 10 9 7 9 4 8 2 7v19l-5 14-8 10-9 7-8 4-14 4-7 1h-23l-15-4-14-8-11-9-9-12-7-14-5-19-2-13-11 12-10 5-4 1h-18l-14-4-16-8-9-8v-3l2-1 12-2 8-4 6-5 1-2h2l2-4 9-9 11-6 5-2 11-1 10 2 6 3 8-18 8-12 11-13 9-8 13-9 16-9 17-8 31-12 26-8 24-6 40-8 49-8z" fill="#fff"/>
<path transform="translate(1116,148)" d="m0 0 9 1 37 13 48 16 19 8 15 8 8 7 3 6v23l-6 7-4 2h-9l-5-4-4-8v-2l-11-3-25-5 1 57h12l17 3 12 5 11 7 10 10 1 5-4 3-13-2h-20l-17 4-7 2 2 61 1 4h14l25-6 8-3 2-5 2-7 7-2 7 1 3 1 2 8v30l-2 10-5 5-14 6-50 15-22 8-16 7-12 4-5 1h-7l-7-3-4-6-1-7v-105h-10l-17-3-13-5-11-6-11-10-6-9-1-4v-8l2-4 6 1 13 6 11 3h3l-6-8-4-10-5-21-2-6 13 1 11 4 6 4 6 8 3 7v13l-3 9 12-2v-48l-1-54-2-9-8-16v-6l5-5z" fill="#fff"/>
<path transform="translate(841,529)" d="m0 0h7l4 2 2 5v16l-6 6-2 6-1 10-1 239 33-1 13-5 13-9 7-8 2-1h6l6 3 4 6 3 13 1 12v36l-4 4-12 2-34 3-16 1h-69l-19-2-5-5-1-2v-16l7-8 2-13v-242l-1-13-3-7-5-5v-17l4-5 6-1z" fill="#fff"/>
<path transform="translate(972,127)" d="m0 0h12l19 8 8 2 12 1 16-1h21l6 3 4 5 1 9-4 8-4 5-19 9-5 5-2 5-1 6v227l10-2 8-2 14-7 9-10 3-3 8 1 4 5 3 7 1 7v35l-5 10-9 4-29 6-25 6-26 6-14 2h-23l-14-3-6-4-3-4 2-7 4-3 16-4 10-5h2v-245l-1-41-4-10-6-12-1-9 3-6z" fill="#fff"/>
<path transform="translate(822,911)" d="m0 0h44l5 4 11 16 6 8v2h2l-1-28 2-2h9l1 2v49l-1 1-10-1-9-10-8-12-5-7-1 29-1 1h-7l-3-1-1-47-3 1-1 6-1 1h-17v8h16l1 5-2 5-5 1h-10v9h18l1 2v9h-30l-1-1v-49z" fill="#fff"/>
<path transform="translate(542,910)" d="m0 0 12 2 8 6 3 4-1 4-4 2-7-1-3-3-3-1h-8l-6 3-4 8 1 9 4 6 4 2h9l6-4v-2l-13-1-1-1 1-7 2-2 11-1h13l2 2-1 12-6 9-5 4-6 3h-16l-7-4-7-8h-3l-2-6 1-5v-7l3-9 5-7 8-5zm-25 35 1 3z" fill="#fff"/>
<path transform="translate(907,911)" d="m0 0h18l10 3 7 5 5 8 1 5v11l-5 10-8 7-6 2-9 1h-11l-7-1v-49zm11 11-1 1v28h9l6-4 3-4 1-9-4-8-5-3z" fill="#fff"/>
<path transform="translate(793,910)" d="m0 0 9 1 8 4 6 7-1 4-4 2h-6l-4-4-3-1h-9l-6 4-3 7v7l4 7 5 3h9l6-4v-3h-14l1-8 2-2 23-1 3 2-1 11-3 6-5 6-10 5h-14l-7-3-5-4-6-10-1-12 2-8 6-9 10-6z" fill="#fff"/>
<path transform="translate(571,911)" d="m0 0 11 1 1 5v23l2 9 4 2 6-1 3-3 1-35 6-1h5l4 3-1 4-2 32-5 8-8 5h-14l-7-4-5-6-2-9v-32z" fill="#fff"/>
<path transform="translate(485,911)" d="m0 0h15l4 6 11 29 6 14v3h-7l-6-2-3-7h-19l-3 8-6 1-8-1 2-4 2-3 9-24 4-9v-6zm11 19-2 1-3 8v3h10l-4-12z" fill="#fff"/>
<path transform="translate(965,910)" d="m0 0 10 1 7 4 3 7-4 4-5 1-5-4-5-1-4 2v4l15 5 6 4 3 4 1 9-5 8-5 4-11 2-8-2-6-4-4-6 1-4h2v-2l5-1 4 2 4 4 5 1 4-2-1-5-16-5-5-4-2-8 1-7 4-6 7-4z" fill="#fff"/>
<path transform="translate(438,911)" d="m0 0h28l3 2-1 9-1 1h-18l1 7 15 1 1 5-2 5-2 1h-12l-1 9h18l1 1 1 8-3 3h-25l-3-1v-5h-2l-1 2v-3h2v-44z" fill="#fff"/>
<path transform="translate(736,911)" d="m0 0h28l2 1v10l-2 1h-17l1 3-1 5h17v9l-6 2h-11v9h18l2 4v6l-3 2h-25l-3-1-1-8v-41z" fill="#fff"/>
<path transform="translate(616,911)" d="m0 0h29l1 1v8l-2 3h-17v8h16v9l-4 2h-12v9h18l1 2v9l-4 1-27-1v-50z" fill="#fff"/>
<path transform="translate(700,911)" d="m0 0h12l1 1v39h19l1 3-1 7-1 1-27 1-4-1z" fill="#fff"/>
<path transform="translate(402,911)" d="m0 0h11l2 1v39h19l1 3-2 8h-32l1-3v-44l-1-3z" fill="#fff"/>
<path transform="translate(1090,924)" d="m0 0 6 1h10l2 2-1 4-4 1-5-3h-5l-5 8-3 12-5-1-2-7-3-7-2-2-2 6 2 10-5 1-6-6-2 6-6-1v-22l1-1h12l4 1 1-1 7 1 2 5 3-1 4-5zm5 3m-33 3-1 4 2 2 1-5z" fill="#fff"/>
<path transform="translate(659,925)" d="m0 0h9l5 3 3 5 1-7 1-1h13l2 4-1 2h-8l1 3 6 1-1 5-5 1-2 7-4 1-2-1-1-6-4 5-3 2h-10l-6-5-1-2v-9l3-5zm2 6-3 5 2 6 1 1h5l3-4v-5l-3-3z" fill="#fff"/>
<path transform="translate(999,925)" d="m0 0h8l3 2 2-2h16l1 3-4 6v14l-1 1h-5l-2-4v-10l-4-4-5 2 4 7-2 6-3 3h-9l-4-3v-6l1-3-1-1v-6zm3 6 1 3h3v-3zm-3 8v3h5l-1-2z" fill="#fff"/>
<path transform="translate(1036,925)" d="m0 0h9l5 3 3 6v12l-4 1-5 3-9-1-7-8v-8l3-6zm2 6-3 4 1 6 2 2h5l3-4-1-6-5-2z" fill="#fff"/>
<path transform="translate(380,924)" d="m0 0 4 1 8 16 2 8-2 1-8-5-5 1-3 3h-5l1-6 7-18zm1 11m1 1 1 2z" fill="#fff"/>
<path transform="translate(519,951)" d="m0 0 2 3-2 1-1-3z" fill="#fff"/>
<path transform="translate(675,943)" d="m0 0 1 3h-2z" fill="#fff"/>
<path transform="translate(854,958)" d="m0 0" fill="#fff"/>
<path transform="translate(948,929)" d="m0 0" fill="#fff"/>
<path transform="translate(734,954)" d="m0 0" fill="#fff"/>
<path transform="translate(675,928)" d="m0 0" fill="#fff"/>
<path transform="translate(520,955)" d="m0 0" fill="#fff"/>
<path transform="translate(521,954)" d="m0 0" fill="#fff"/>
<path transform="translate(947,949)" d="m0 0" fill="#fff"/>
<path transform="translate(551,947)" d="m0 0" fill="#fff"/>
<path transform="translate(552,946)" d="m0 0" fill="#fff"/>
<path transform="translate(868,935)" d="m0 0" fill="#fff"/>
<path transform="translate(496,933)" d="m0 0" fill="#fff"/>
<path transform="translate(1052,928)" d="m0 0" fill="#fff"/>
<path transform="translate(613,919)" d="m0 0" fill="#fff"/>
</svg>
