<?xml version="1.0" encoding="UTF-8"?>
<svg version="1.1" viewBox="0 0 2048 631" width="350" height="108" xmlns="http://www.w3.org/2000/svg">
<path transform="translate(391,8)" d="m0 0h51l2 5 7 72 7 55 4 16v-14l-1-20-1-67v-45l1-2h47v455l-43 1-4-1-2-11-8-70-6-57-5-55-2-1v194l-9 1h-37l-2-5v-450z" fill="#FDFDFD"/>
<path transform="translate(1568,8)" d="m0 0h51l1 2 3 30 13 113 1 3 1-24v-123l1-1h46v455l-7 1h-36l-4-2-4-30-17-144-3-21h-2l1 2 1 37 1 58 1 99h-48l-1-387v-66z" fill="#FDFDFD"/>
<path transform="translate(203,8)" d="m0 0h81l8 3 3 3v2l4 2 3 5 1 8v403l-1 14-4 6-7 6-7 3-11 1h-56l-13-1-9-4-7-9-2-6-1-40v-158l1-220 3-7 7-8zm34 46-2 3v360l13-1 4-1 1-254v-97l-1-7-4-3z" fill="#FDFDFD"/>
<path transform="translate(983,8)" d="m0 0h99l8 3 6 5 1 2v170l-8 5 1 7 5 5 2 3v255l-2 1h-30l-17-1-1-239-2-3-16-3v245h-47v-454zm46 45-1 96v22l1 1h9l9-1 2-2v-68l-1-43-4-4-4-1z" fill="#FDFDFD"/>
<path transform="translate(1221,7)" d="m0 0h63l1 1v45l-26 1h-25l-1 362 17-2v-241l1-1h49l1 1v309h-47l-1-8v-11l-4 1h-31l-15-1-10-4-6-5-3-6-1-7v-412l2-8 4-6 8-6 2-1z" fill="#FDFDFD"/>
<path transform="translate(581,7)" d="m0 0 46 1 1 2 15 157 6 45 3-56 14-147 5-2h41l1 1-2 29-5 59-5 56-8 85-7 78-5 60-6 63-2 24-1 1-33 1h-16l-2-6-8-82-6-66-8-92-9-95-9-104z" fill="#FDFDFD"/>
<path transform="translate(1388,8)" d="m0 0h93v44l-1 1-9 1-36 1v118h45l1 1v43l-5 2-41 1v196l46 1v45l-1 1-70 1h-21l-1-1-1-16v-437z" fill="#FDFDFD"/>
<path transform="translate(1955,8)" d="m0 0h93v45h-46l-1 120h47v46h-47l1 197 46 1v46l-87 1-6-1-1-453z" fill="#FDFDFD"/>
<path transform="translate(20,8)" d="m0 0h81l1 2v43l-51 1v362l50 1 1 1v44l-3 2h-59l-21-1-10-4-8-11-1-1v-425l10-11 4-2z" fill="#FDFDFD"/>
<path transform="translate(1815,7)" d="m0 0h56l1 45-1 1-30 1h-21l-1 362h16l36 1 1 45-6 2h-52l-24-1-9-3-7-6-3-8-1-6-1-27v-68l1-319 5-10 8-7 2-1z" fill="#FDFDFD"/>
<path transform="translate(870,7)" d="m0 0h34l-1 10-13 72-11 65-12 69-10 58-9 50-8 49-8 45-7 38-2 1h-30l-14-1-1-3 6-35 17-99 9-53 13-73 9-54 13-74 9-55 2-9z" fill="#FDFDFD"/>
<path transform="translate(1171,543)" d="m0 0h61l17 1 2 1 4 8 10 13 14 20 8 10v-53h17l1 84-15 1-6-5-11-14-10-13-11-16-4-5-2 54h-13l-1 2-1-1-1-9-1-71-1-4h-5l-1 3-1 11h-19l-13-1v19l11-1h17l1 3-1 12-5 1-23 1v15l1 1 32 1v17h-50l-1-60z" fill="#FDFDFD"/>
<path transform="translate(690,542)" d="m0 0h17l13 4 9 7 5 6 2 4-1 4-8 4-6-1-10-7-6-3h-12l-10 5-6 8-3 9v8l4 10 4 5 9 5 9 1 11-3 6-5 2-7h-11l-13 1-2-2 2-9 3-5 2-1 39-1 2 1-1 18-4 10-8 10-8 6-9 4-15 2-13-3-10-6-8-8-6-10-4-11-1-7 2-11 4-9 4-6 6-7 11-7z" fill="#FDFDFD"/>
<path transform="translate(1116,542)" d="m0 0h14l12 3 10 6 6 5 3 6-1 3-10 6-6-1-9-8-5-2h-13l-8 4-6 7-3 6-1 5v8l4 11 5 5 7 4 10 1 9-2 6-4 2-2v-6h-23l-1-3 2-9 4-4 6-1 34-1v19l-3 9-6 8-7 7-12 6-5 1h-17l-12-5-9-7-8-9-4-11v-19l2-9 5-9 7-8 11-7z" fill="#FDFDFD"/>
<path transform="translate(1315,543)" d="m0 0h12l21 1 13 4 10 7 7 8 5 13 1 6v8l-3 13-6 10-8 7-13 6-12 2h-28l-1-6v-77zm18 17-2 3-1 12v31l1 4 2 1h11l9-3 8-7 4-10v-12l-5-10-6-5-7-3-6-1z" fill="#FDFDFD"/>
<path transform="translate(747,543)" d="m0 0 18 1v49l2 10 1 4 9 3h8l6-3 2-2 1-4 1-21 1-37h18v58l-2 9-8 11-9 6-7 2h-15l-10-4-10-9-5-8-1-4-1-30v-30z" fill="#FDFDFD"/>
<path transform="translate(1411,542)" d="m0 0h14l11 4 7 6 3 6-2 5-6 5-6-1-9-7-3-1h-7l-5 4-1 2v9l7 2 13 1 10 4 7 6 4 8 1 3v10l-6 12-8 6-10 4-10 1-10-3-8-5-5-4-4-5-1-4 3-9 5-1 15 9 5 2h8l6-4 1-1-1-7-8-3-18-4-6-4-7-8-2-5v-10l3-8 9-10 7-4z" fill="#FDFDFD"/>
<path transform="translate(603,543)" d="m0 0h24l5 10 11 28 8 22 8 18 1 7h-14l-5-5-5-11h-33l-3 5-5 10-4 1-6 2-4 1v-9l5-17 11-28 10-22-2-5-3-3zm16 26-3 5-8 20v1h15l6-1-2-9-6-16z" fill="#FDFDFD"/>
<path transform="translate(1026,543)" d="m0 0h50v10l-1 7h-31v18l12-1h17l-1 15-8 1h-20v18h31l1 1v16l-2 1-46-1-1 3-1-3-1-21v-63z" fill="#FDFDFD"/>
<path transform="translate(823,543)" d="m0 0h48l2 1-1 14-1 2-30-1 1 18h26l-1 15-4 1-23 1v16l32 1 1 16-1 1h-49l-1-25z" fill="#FDFDFD"/>
<path transform="translate(522,543)" d="m0 0h48l1 1-1 16h-14l-16-1v19l27-1-1 15-2 1h-24v17l31 1v9l-1 8h-14l-33-1-1-1-1-82z" fill="#FDFDFD"/>
<path transform="translate(966,543)" d="m0 0h15l5 1v67h33l-1 16-1 1h-46v3h-3l-1-78z" fill="#FDFDFD"/>
<path transform="translate(462,543)" d="m0 0h14l6 1v67h31v10l-1 6-45 1v3l-3-1-1-79z" fill="#FDFDFD"/>
<path transform="translate(897,566)" d="m0 0h14l7 5 4 7 1 4v9l-3 6-8 7-2 1h-12l-8-5-4-5-2-4v-11l3-6 8-7zm3 9-5 3-2 4 1 9 5 5 6 1 5-2 3-4v-11l-5-5z" fill="#FDFDFD"/>
<path transform="translate(1545,565)" d="m0 0 10 1 6 4 5 8v14l-3 6-7 6-6 2-9-1-5-3-6-7-2-4v-11l4-7 7-6zm-2 10-5 4-1 3v7l4 6 5 2 7-1 4-5 1-8-3-6-2-2z" fill="#FDFDFD"/>
<path transform="translate(1579,565)" d="m0 0h12l5 3 6 5 1 6-6 9v7l4 6v4l-4 1-6-4-8-11-2 5-1 8-1 1h-5l-2-2v-26l1-10zm5 6-2 3v9l3 4 4-2 3-6v-5l-4-3z" fill="#FDFDFD"/>
<path transform="translate(1477,564)" d="m0 0 8 1 5 5 2 6v4l-4-1-8-8-4 1-1 3 12 8 5 3 1 2v8l-5 7-4 2h-11l-6-5-1-6 1-1h6l4 5 4-2 2-10-9 3-9-7v-7l7-9z" fill="#FDFDFD"/>
<path transform="translate(424,564)" d="m0 0 4 2 5 6 9 19 3 10v6l-6-3-5-6-10-1-5 3-9 6h-2l1-6 11-27 3-8zm1 13v12l1 3 7 3-3-9-4-9z" fill="#FDFDFD"/>
<path transform="translate(933,565)" d="m0 0h14l2 1v10l-1 2-5-2-4-4v10l1 2h7v7l-9 3-3 10-4 2-4-4-1-9v-15l2-12z" fill="#FDFDFD"/>
<path transform="translate(1499,565)" d="m0 0h13l12 1-1 5-5 7-1 3v24l-1 1-8-1-1-2-2-22-6-13z" fill="#FDFDFD"/>
<path transform="translate(1603,565)" d="m0 0 7 1 5 5 5 7 2 1 6-12 5-2 4 1-2 6-10 16-1 17-5 1-3-7-4-16-9-17z" fill="#FDFDFD"/>
<path transform="translate(523,629)" d="m0 0h2v2h-2z" fill="#FDFDFD"/>
<path transform="translate(428,588)" d="m0 0" fill="#FDFDFD"/>
<path transform="translate(1314,630)" d="m0 0 2 1z" fill="#FDFDFD"/>
<path transform="translate(1173,630)" d="m0 0 2 1z" fill="#FDFDFD"/>
<path transform="translate(1292,630)" d="m0 0" fill="#FDFDFD"/>
<path transform="translate(660,629)" d="m0 0" fill="#FDFDFD"/>
</svg>
