<?xml version="1.0" encoding="UTF-8"?>
<svg version="1.1" viewBox="0 0 1400 952" width="350" height="238" xmlns="http://www.w3.org/2000/svg">
<path transform="translate(1069,341)" d="m0 0h48l27 1 10 2 8 5 5 6 4 11v80l-2 15-5 8-6 5-6 1 3 3 6 4 6 7 3 6 1 10v106h-44l-1-1v-114l-12 1-1 114h-44l-1-1v-268zm45 39-1 1v76l1 1h11l1-1 1-75-1-2z" fill="#fff"/>
<path transform="translate(975,341)" d="m0 0h56l9 2 7 5 6 10 2 7v210l-1 17-3 8-6 7-10 4-28 1h-24l-12-1-8-4-7-9-3-11v-221l2-9 6-9 7-5zm23 39-1 17v173l1 3h12l1-4v-188l-1-1z" fill="#fff"/>
<path transform="translate(128,341)" d="m0 0h55l9 2 7 5 6 9 2 9v207l-1 20-4 8-5 6-6 3-4 1-29 1h-19l-16-1-6-3-5-4-5-8-2-9v-222l3-10 6-8 9-5zm22 39-1 2v188l1 3h12l1-191-1-2z" fill="#fff"/>
<path transform="translate(761,340)" d="m0 0h27l15 1 8 3 7 6 5 10 2 11v70l-1 1h-44v-62l-13 1v56l2 5 9 6 15 8 13 8 10 8 6 9 3 16v83l-2 13-4 8-9 8-6 2-34 1h-19l-11-1-9-6-6-8-3-9v-91l1-1h42l1 1v76h14l-1-72-3-5-13-8-20-11-10-8-7-7-3-7-1-7v-82l3-11 5-7 8-5 8-2z" fill="#fff"/>
<path transform="translate(1316,340)" d="m0 0h27l13 1 9 3 6 5 6 10 1 4 1 78-1 1h-44v-62l-13 1v57l3 5 10 6 25 14 10 8 6 8 3 9v101l-3 9-9 10-8 3-19 1h-32l-13-1-7-4-7-8-3-7-1-6v-89l1-1h43l1 1v21l-1 55h14l-1-72-1-5-5-2-18-10-15-9-10-8-6-9-2-11v-79l2-11 6-9 8-5 7-2z" fill="#fff"/>
<path transform="translate(838,341)" d="m0 0h59l21 1 8 3 6 4 6 9 2 5 1 8v110l-2 12-6 10-6 5-10 3-8 1h-26v99l-39 1-6-1-1-14v-254zm46 39-1 1v96h12l1-1v-95l-1-1z" fill="#fff"/>
<path transform="translate(642,342)" d="m0 0h70v38h-25v62h24l1 1v33l-1 1h-24v96h24l1 1v37l-42 1h-24l-4-1z" fill="#fff"/>
<path transform="translate(1179,341)" d="m0 0h74l15 1 1 5-1 33-21 1-1 230-35 1-10-1v-231l-19 1-3-1-1-7v-31z" fill="#fff"/>
<path transform="translate(23,341)" d="m0 0 44 1v230l27 1 1 1v37l-46 1-18-1-5-5-4-5-1-5v-253z" fill="#fff"/>
<path transform="translate(221,341)" d="m0 0h30l14 1v231h28l1 1v37l-54 1-10-1-6-5-3-5-1-4v-255z" fill="#fff"/>
<path transform="translate(537,341)" d="m0 0h50l16 1 1 1v113l-1 1h-38l-1-1v-47l-67 67-4-1-11-12-13-12v-4l13-12 54-54-49-1v-38z" fill="#fff"/>
<path transform="translate(440,477)" d="m0 0 4 2 6 7 8 7 10 10-2 4-66 66h48l1 1v37l-66 1h-43l-7-1v-114l1-1h37l1 1-1 48 8-7 57-57z" fill="#fff"/>
<path transform="translate(565,496)" d="m0 0h37l2 4-1 66-4 13-6 10-9 10-9 6-12 5-4 1-34 1h-36l-2-1v-37l1-1h77l-1-26v-48z" fill="#fff"/>
<path transform="translate(392,341)" d="m0 0h55l2 1v37l-1 1-76 1v75l-1 1h-38v-71l5-13 7-11 10-10 12-7 9-3z" fill="#fff"/>
</svg>
