<?xml version="1.0" encoding="UTF-8"?>
<svg version="1.1" viewBox="0 0 1400 896" width="350" height="224" xmlns="http://www.w3.org/2000/svg">
<path transform="translate(1377,57)" d="m0 0h11l-1 10-13 51-12 45-12 44-10 37-1 2 31-4h7l-1 7-13 56-5 18-3 2-34 3-98 7 3-10 12-42 8-31 4-11-12 2-39 4-4 16-20 79-2 3-24 2-40 3-13 10-11 7-3 5 13-2 27-2h10l4 16 12 54 8 38 3 15 4-2 7-10 16-24 24-34 17-25 12-17 7-9 8-2 65-5 61-4-1 5-7 23-10 38-7 23-17 62-12 43-5 15v2h33l1 4-4 15-14 61-3 5h-133l2-9 11-37 12-43 12-41 6-18 4-13-6 4-11 13-9 11-12 14-13 15-11 13-12 14-9 11-11 12-8 10-9 10-8 10-4-4-7-19-13-31-12-28-7-19-2-6h-3l-2 10-12 41-13 47-10 37-3 7-3 2h-95l1-5 5-12 15-53 14-49 7-23 19-67 9-29 4-13-18 2-125 8h-8l2-5 13-21 7-9 11-13 19-19 11-9 8-7 13-10 1-1 9 1 9 2h20l15-4 16-7 14-9 10-9 12-12 9-13 4-4 16 8 19 10 7 3 1-8 12-46 10-37 10-36 16-62 3-9 2-1 69-7h7l-2 10-7 24-12 42-2 6 42-4 8-1 8-26 10-37 9-32 4-10 1-1 45-4z" fill="#FAFAFA"/>
<path transform="translate(760,375)" d="m0 0h8l20 4 19 7 15 8 13 11 11 12 6 10-3 2-35 3-3 15-14 50-14 47-12 43-14 49-3 6-4 1-67-1 13-42 8-28 5-15h-32l-9 30-12 39-14 48-2 4h-81l12-37 12-43 9-32 10-30 7-22v-3l-8 10-9 16-15 27-8 13-9 15-10 17-11 19-9 15-15 26-11 18-2 2h-73l4-8 6-8 2-5-22 1h-32l-2-5v-25l-64 1-12 21-8 16-3 4-4 1-36-1-3-1 4-16 9-30 7-19 6-14 8-16 12-22 14-21 13-16 7-9 20-20 11-9 12-9 16-10 20-11 20-8 25-6 21-3 7 1 6 7 7 10 10 13 14 19 7 11 5 5 13-23 9-15 7-12 2-1 18 11 15 10 9 7h3l10-18 14-22 12-16 9-11 13-11 14-10 14-7 26-10h4l-1 5-5 14-17 61-8 28-5 14 8-1h17l7-1 5-14 8-29 17-61zm-325 96 1 8 4 26 6 48 7 67 1 19 3 1 3-3 10-18 9-15 14-25 7-12-1-5-10-14-10-16-24-36-11-18-5-5zm-59 69-7 10-8 16-13 24-7 11v1h18l23-1-1-27-2-34z" fill="#FAFAFA"/>
<path transform="translate(800,111)" d="m0 0h3l-3 9-12 35-4 8-6 2-56 7-7 24-14 51-10 34-13 47-3 4-53 5h-9l7-26 11-47 6-23 3-10 1-4-8 7-9 12-14 18-13 16-14 18-8 10 1 6 14 27 12 23 3 1 55-6h9l1 2-7 14-11 8-8 6-10 9-8 7-7 8-12 15-8 12-4 1-19-10-14-6-9-4-9-16-10-19-5-10h-4l-9 14-11 15-8 9h-18l-24 3-28 7-16 7-11 6-3-1 12-32 3-7-32 4-57 5h-14l6-16 14-44 10-33 16-50 7-23 31-3 43-4h17l-3-7-6-10-1-6 54-5 12-1h11l5 12 8 16 8 14 5 10v2h3l2-5 9-13 12-15 7-10 4-5 16-2 46-5 6-23-42 5-16 2h-5l3-10 11-30 3-10 2-2 91-12 96-11zm-337 144-1 4-1 16-56 4-2 1-8 23v2l37-2 13-1-7 18-2 9-1 1-20 2-27 2-2 2-4 16-2 4v4l23-1 51-3-5 12-3 8v4l13-1 9-12 13-19 10-15 8-11-1-7-14-26-12-24-7-9z" fill="#FAFAFA"/>
<path transform="translate(913,55)" d="m0 0 10 2 10 6 7 7 7 11 4 1 14-3 10-1h15l5 5 4 7 15-3h31l19 3 17 5 19 9 16 10 15 14 4 5-1 4-6 4-12 9-16 13-9 7-7 6-4-1-12-9-13-6-12-3h-22l-16 4-10 4-3-1-4-9-1-1h-8l-11 7-3 3 1 6 3 4-1 4-14 12-7 7h-2l-2 4-7 8-8 14-6 14-4 15-1 6v24l3 18 5 10-1 4-11 8-10 8-12 11-8 7-11 11-9 11-6 8-4-2-13-9-16-8-18-7-17-4-17-2h-23l-20 3-22 6-10 3 3-11 9-30 10-37 10-35 7-26 6-24 4-2 48-7 55-7h7l-8 17-7 19-6 18-2 2-41 6-4 9-5 13 46-7h4l-3 12-8 26-12 3-40 5-1 7-4 14 35-5 49-6h3l-3-10-2-16v-26l3-21 9-29 9-21 9-16 9-12 9-11 8-8 4-3-1-9-3-6 1-5 7-9 14-14 5-4-2-5-7-6-8-4-7-8-1-6 4-6z" fill="#FAFAFA"/>
<path transform="translate(365,433)" d="m0 0 3 1-2 9-3 6-3 9-11 11-14 11-14 14-7 8-11 13-20 30-10 18-13 27-12 29-8 26-8 32-1 1-49-1 3-9 7-20 5-15 12-39 7-19 3-8-5 3-9 10-9 11-22 24-7 8-11 12-9 11-7 7-8 10h-2l-7-32-9-43-3-16-3 1-12 40-12 36-15 49-1 1h-62l3-9 21-65 11-33 17-54 6-14-6 1-25 1 1-5 17-51 3-4 60-7 21-2 3 7 12 40 10 32 2 9 2 3 6-5 8-11 9-10 9-11 12-14 9-11 10-11 9-11 11-14 8-8 2-1 81-6z" fill="#FAFAFA"/>
<path transform="translate(335,209)" d="m0 0h8l-1 5-10 30-14 47-14 44-17 57-4 9-53 5h-10l3-10 8-25 8-24-13 2-42 4-2 9-14 48-4 12-1 1-52 4h-7l3-9 13-41 16-51 9-29 4-13-14 2-20 2 1-5 7-19 7-20 3-6 21-3 64-7h7l-5 12-8 25-7 23-3 8 21-2 25-2 8-2 12-38 9-30 3-8 2-1z" fill="#FAFAFA"/>
<path transform="translate(962,447)" d="m0 0h10l-1 7-7 25-5 16-7 1-59 5-7 1-7 18-1 4 19-3 42-4h6l-1 5-13 44-4 4-61 5-4 10-5 15 42-4 39-3 1 2-8 26-6 24-2 2h-134l3-11 8-29 12-43 14-49 13-47 3-10 2-1 108-9z" fill="#FAFAFA"/>
<path transform="translate(1e3 203)" d="m0 0h21l12 3 13 7 8 7 5 8 1 6-3 12-5 12-8 12-6 4-3 1h-15l-2 7-6 5h-8l2-12 1-2-3 1-4 11-1 1h-8l-9-3v-4l5-5 1-4-3 1-6 10-6-1-2-2 1-7 4-5-6-1-6-5-4-7 1-9 6-15 6-9 8-9 8-5zm-6 9-6 3-8 8-8 13-2 5v8l5 4 13 2 16-14 6-8 5-12v-6l-4-2-6-1zm34 5-5 5-8 16-2 7 3 2 1 11 3 4 10 3 6-1 5-4 7-14 1-6v-10l-3-5-7-6-6-2zm-23 31-8 7-1 3 5 3h5l3-7v-6z" fill="#FAFAFA"/>
<path transform="translate(845,759)" d="m0 0h19l5 4 8 12 7 10 10 14v-39l1-1h12l1 1v63l-2 1h-9l-4-2-13-17-15-21v39l-1 1h-12l-2-2h2v-3h-2l-1-10v-14h-1v-13l1-16-1-5z" fill="#FAFAFA"/>
<path transform="translate(765,758)" d="m0 0h14l9 4 9 6 3 4-1 5-7 3-1 2-5-2-5-5-4-2h-10l-8 4-4 6-1 3v12l4 7 9 5h8l7-3 4-3 1-4-19 1-1-1v-6l4-6 2-1h22l8-1v15l-3 8-7 8-9 6-7 2h-13l-12-6-5-4-7-11-1-4v-17l4-10 9-9 9-5z" fill="#FAFAFA"/>
<path transform="translate(449,757)" d="m0 0h7l9 3 12 7 4 5v5l-8 4v2h-2l-5-5-5-4-3-1h-10l-6 3-5 6-2 5v11l4 6 6 5 3 1h8l8-3 3-4 1-3-19 1-1-5 3-7 2-2h31l-1 17-4 8-7 7-9 5-4 1h-15l-10-5-8-9-5-10-1-3v-16l5-9 4-5 11-8z" fill="#FAFAFA"/>
<path transform="translate(914,759)" d="m0 0h26l11 4 9 7 6 10 2 9v10l-5 10-8 9-10 5-5 1h-26l-1-1v-62zm15 14-1 3v32l1 2 4 1 9-2 8-6 3-6v-11l-3-6-6-5-4-2z" fill="#FAFAFA"/>
<path transform="translate(488,759)" d="m0 0h14l1 1 1 43 1 3 6 4h6l6-4 1-3 1-44h14l2 1v39l-2 11-5 7-10 7-3 1h-14l-8-4-5-5-5-8-1-8-1-40z" fill="#FAFAFA"/>
<path transform="translate(382,759)" d="m0 0h12l6 2 4 8 13 34 4 10 5 9-1 2h-14l-2-1-4-10h-24l-5 10-2 1h-15l-1-2 4-1 6-16 8-20 7-14v-5l-2-2zm10 22-5 12-1 5 2 1h10l2-1-2-9-4-8z" fill="#FAFAFA"/>
<path transform="translate(987,758)" d="m0 0h11l9 4 7 6 1 5-3 3-2 1h-8l-5-4-7-1-3 1-1 2v6l13 4 8 3 6 5 4 10v6l-4 6-9 8-8 3-11-1-9-5-7-8 1-5 5-5h7l4 7 5 2 9-1v-8l-10-3-11-4-7-5-2-6v-10l3-6 8-7z" fill="#FAFAFA"/>
<path transform="translate(699,759)" d="m0 0h38v9l-2 5h-12l-10-1v13l10-1h11l-1 13-10 1h-10v12l22-1 2 7v8h-38l-1-28v-36z" fill="#FAFAFA"/>
<path transform="translate(547,759)" d="m0 0h36l1 3-1 10-3 1h-21l1 11h21l-1 13-7 1h-14l1 12h23l1 13-1 1h-38v-62z" fill="#FAFAFA"/>
<path transform="translate(807,759)" d="m0 0h37v13l-10 1-12-1v12h20v13l-4 1h-16v12h23v14h-37l-1-1z" fill="#FAFAFA"/>
<path transform="translate(320,759)" d="m0 0h37l1 1-1 13h-16l-7-1v13l7-1h14v12l-1 1h-20v14h23v12l-1 1h-36l-1-26v-38z" fill="#FAFAFA"/>
<path transform="translate(892,11)" d="m0 0 7 6 10 14 3 4v2l7-1 23-11 4-1-1 5-8 18v2l3 2-8-1-3-1v-2h-2l-1-3-5 1-9-1-3-1-1 3-2-1v-2h-3l1 3h-2v-3h-2l1 6h-4v4l-3 1 1 4h-2l3 9 1 4 4 1 1 5-12 5-16 8-6 2 4-7 13-19-5-5-16-11-2-3 31-4zm19 27m-4 1m1 1v2l2-1z" fill="#FAFAFA"/>
<path transform="translate(653,759)" d="m0 0h16l1 1v51l12-1h12l1 3-4 7v4h-38l-1-2 1-2z" fill="#FAFAFA"/>
<path transform="translate(274,759)" d="m0 0h13l4 1v51l13-1h12l-2 9-3 5h-37l1-9v-48z" fill="#FAFAFA"/>
<path transform="translate(602,776)" d="m0 0h9l6 4 5 7 2-9 6-2h11l2 2-1 5-8 1v4h6l-1 7-6 7-3 4h-6l-1-1v-10l-7 9-4 3h-10l-6-4-4-5-1-9 4-8 5-4zm5 7-6 4-2 5 3 5 3 2h5l3-4 1-5-3-5z" fill="#FAFAFA"/>
<path transform="translate(1107,776)" d="m0 0h8l7 3 2 2 2-4h7l5 6 4-1 3-5h6l1 4-4 6-3 7-1 11-2 1h-7l-1-1-3-18-5 1-2 4v6l3 4 1 4h-8l-8-8v-2h-2l1 9-1 1h-7l-1-2v-22l2-5zm4 7-1 5 7-1-2-4z" fill="#FAFAFA"/>
<path transform="translate(1082,776)" d="m0 0h8l6 4 4 6v12l-6 7-3 2h-11l-5-4-5-8v-7l7-9zm3 7-5 4-1 7 4 5 7-1 2-3v-8l-4-4z" fill="#FAFAFA"/>
<path transform="translate(247,776)" d="m0 0 4 1 5 7 7 16 1 8-6-1-8-6-5 2-6 4h-5l1-6 10-23z" fill="#FAFAFA"/>
<path transform="translate(1035,776)" d="m0 0h7l4 2 2 4v5l-9-3-4 4 4-2 3 2v2l6 2 1 1v8l-6 5-3 1h-9l-3-2-2-10 1-2h2l4 6 6 1v-3l-6-2-6-5-1-6 3-5z" fill="#FAFAFA"/>
<path transform="translate(1050,776)" d="m0 0h13l8 1-2 5-3 5v18l-1 1h-8l-1-1-1-15-1-6-4-2-2-5z" fill="#FAFAFA"/>
<path transform="translate(902,77)" d="m0 0 1 2 6-2 1 3 4 1 1 5-4 12-4 2-1 3-2-2-2-15-1-8z" fill="#FAFAFA"/>
<path transform="translate(942,52)" d="m0 0 9 2 12 4 2 1-1 3-10 2h-16v-1h13l-1-2-6-1 1-3-2-1z" fill="#FAFAFA"/>
<path transform="translate(829,852)" d="m0 0 17 7 1 2-14-3-4-4z" fill="#FAFAFA"/>
<path transform="translate(446,859)" d="m0 0 3 1-11 5-3-1z" fill="#FAFAFA"/>
<path transform="translate(431,865)" d="m0 0 4 1-10 4-4-1z" fill="#FAFAFA"/>
<path transform="translate(971,861)" d="m0 0 5 2 2 3-6-1z" fill="#FAFAFA"/>
<path transform="translate(453,855)" d="m0 0 2 1-4 3-2-1z" fill="#FAFAFA"/>
<path transform="translate(1073,720)" d="m0 0 2 1-4 4z" fill="#FAFAFA"/>
<path transform="translate(784,713)" d="m0 0 1 3-4-2z" fill="#FAFAFA"/>
<path transform="translate(967,858)" d="m0 0 4 2h-3z" fill="#FAFAFA"/>
<path transform="translate(761,857)" d="m0 0 3 3-3-1z" fill="#FAFAFA"/>
<path transform="translate(1126,747)" d="m0 0 2 1-3 2z" fill="#FAFAFA"/>
<path transform="translate(900,723)" d="m0 0 1 2-2 2z" fill="#FAFAFA"/>
<path transform="translate(776,713)" d="m0 0 3 1-3 1z" fill="#FAFAFA"/>
<path transform="translate(574,873)" d="m0 0v3z" fill="#FAFAFA"/>
<path transform="translate(590,851)" d="m0 0v3z" fill="#FAFAFA"/>
<path transform="translate(883,710)" d="m0 0v3z" fill="#FAFAFA"/>
<path transform="translate(695,823)" d="m0 0 3 1z" fill="#FAFAFA"/>
<path transform="translate(669,731)" d="m0 0 3 1z" fill="#FAFAFA"/>
<path transform="translate(518,715)" d="m0 0h2l-1 2z" fill="#FAFAFA"/>
<path transform="translate(572,876)" d="m0 0" fill="#FAFAFA"/>
<path transform="translate(848,861)" d="m0 0 2 1z" fill="#FAFAFA"/>
<path transform="translate(584,859)" d="m0 0" fill="#FAFAFA"/>
<path transform="translate(760,855)" d="m0 0" fill="#FAFAFA"/>
<path transform="translate(191,771)" d="m0 0 2 1z" fill="#FAFAFA"/>
<path transform="translate(663,732)" d="m0 0 2 1z" fill="#FAFAFA"/>
<path transform="translate(715,727)" d="m0 0" fill="#FAFAFA"/>
<path transform="translate(748,719)" d="m0 0" fill="#FAFAFA"/>
<path transform="translate(972,715)" d="m0 0 2 1z" fill="#FAFAFA"/>
<path transform="translate(881,714)" d="m0 0" fill="#FAFAFA"/>
<path transform="translate(893,58)" d="m0 0" fill="#FAFAFA"/>
<path transform="translate(897,53)" d="m0 0 2 1z" fill="#FAFAFA"/>
<path transform="translate(940,51)" d="m0 0 2 1z" fill="#FAFAFA"/>
<path transform="translate(904,46)" d="m0 0 2 1z" fill="#FAFAFA"/>
<path transform="translate(961,875)" d="m0 0" fill="#FAFAFA"/>
<path transform="translate(960,874)" d="m0 0" fill="#FAFAFA"/>
<path transform="translate(576,870)" d="m0 0" fill="#FAFAFA"/>
<path transform="translate(577,869)" d="m0 0" fill="#FAFAFA"/>
<path transform="translate(578,868)" d="m0 0" fill="#FAFAFA"/>
<path transform="translate(571,866)" d="m0 0" fill="#FAFAFA"/>
<path transform="translate(580,865)" d="m0 0" fill="#FAFAFA"/>
<path transform="translate(969,863)" d="m0 0" fill="#FAFAFA"/>
<path transform="translate(581,863)" d="m0 0" fill="#FAFAFA"/>
<path transform="translate(968,862)" d="m0 0" fill="#FAFAFA"/>
<path transform="translate(729,862)" d="m0 0" fill="#FAFAFA"/>
<path transform="translate(582,862)" d="m0 0" fill="#FAFAFA"/>
<path transform="translate(575,862)" d="m0 0" fill="#FAFAFA"/>
<path transform="translate(728,861)" d="m0 0" fill="#FAFAFA"/>
<path transform="translate(583,861)" d="m0 0" fill="#FAFAFA"/>
<path transform="translate(764,860)" d="m0 0" fill="#FAFAFA"/>
<path transform="translate(585,858)" d="m0 0" fill="#FAFAFA"/>
<path transform="translate(288,858)" d="m0 0" fill="#FAFAFA"/>
<path transform="translate(586,857)" d="m0 0" fill="#FAFAFA"/>
<path transform="translate(810,854)" d="m0 0" fill="#FAFAFA"/>
<path transform="translate(850,820)" d="m0 0" fill="#FAFAFA"/>
<path transform="translate(1123,751)" d="m0 0" fill="#FAFAFA"/>
<path transform="translate(1124,750)" d="m0 0" fill="#FAFAFA"/>
<path transform="translate(437,739)" d="m0 0" fill="#FAFAFA"/>
<path transform="translate(215,739)" d="m0 0" fill="#FAFAFA"/>
<path transform="translate(214,738)" d="m0 0" fill="#FAFAFA"/>
<path transform="translate(659,734)" d="m0 0" fill="#FAFAFA"/>
<path transform="translate(298,730)" d="m0 0" fill="#FAFAFA"/>
<path transform="translate(299,729)" d="m0 0" fill="#FAFAFA"/>
<path transform="translate(716,726)" d="m0 0" fill="#FAFAFA"/>
<path transform="translate(717,725)" d="m0 0" fill="#FAFAFA"/>
<path transform="translate(718,724)" d="m0 0" fill="#FAFAFA"/>
<path transform="translate(578,724)" d="m0 0" fill="#FAFAFA"/>
<path transform="translate(370,724)" d="m0 0" fill="#FAFAFA"/>
<path transform="translate(964,723)" d="m0 0" fill="#FAFAFA"/>
<path transform="translate(719,723)" d="m0 0" fill="#FAFAFA"/>
<path transform="translate(965,722)" d="m0 0" fill="#FAFAFA"/>
<path transform="translate(748,722)" d="m0 0" fill="#FAFAFA"/>
<path transform="translate(720,722)" d="m0 0" fill="#FAFAFA"/>
<path transform="translate(966,721)" d="m0 0" fill="#FAFAFA"/>
<path transform="translate(523,721)" d="m0 0" fill="#FAFAFA"/>
<path transform="translate(967,720)" d="m0 0" fill="#FAFAFA"/>
<path transform="translate(968,719)" d="m0 0" fill="#FAFAFA"/>
<path transform="translate(969,718)" d="m0 0" fill="#FAFAFA"/>
<path transform="translate(970,717)" d="m0 0" fill="#FAFAFA"/>
<path transform="translate(522,717)" d="m0 0" fill="#FAFAFA"/>
<path transform="translate(971,716)" d="m0 0" fill="#FAFAFA"/>
<path transform="translate(880,716)" d="m0 0" fill="#FAFAFA"/>
<path transform="translate(776,716)" d="m0 0" fill="#FAFAFA"/>
<path transform="translate(521,716)" d="m0 0" fill="#FAFAFA"/>
<path transform="translate(884,709)" d="m0 0" fill="#FAFAFA"/>
<path transform="translate(905,77)" d="m0 0" fill="#FAFAFA"/>
<path transform="translate(935,63)" d="m0 0" fill="#FAFAFA"/>
<path transform="translate(907,57)" d="m0 0" fill="#FAFAFA"/>
<path transform="translate(909,55)" d="m0 0" fill="#FAFAFA"/>
<path transform="translate(940,54)" d="m0 0" fill="#FAFAFA"/>
<path transform="translate(896,54)" d="m0 0" fill="#FAFAFA"/>
<path transform="translate(939,52)" d="m0 0" fill="#FAFAFA"/>
<path transform="translate(912,45)" d="m0 0" fill="#FAFAFA"/>
<path transform="translate(946,23)" d="m0 0" fill="#FAFAFA"/>
</svg>
