<?xml version="1.0" encoding="UTF-8"?>
<svg version="1.1" viewBox="0 0 2048 866" width="350" height="148" xmlns="http://www.w3.org/2000/svg">
<path transform="translate(1099,467)" d="m0 0h89l14 20 14 19 13 19 14 19 12 17 13 18 14 20 13 18 12 17 11 15 12 17 8 10 2 2v-211h68l1 323-1 1-12 1h-57l-4-2-13-18-15-20-10-14-14-19-26-36-12-16-26-36-14-19-13-18-7-9-2-2v207l-4 2h-64l-1-1-1-9v-285l-5-12-9-16z" fill="#FEFEFE"/>
<path transform="translate(680,461)" d="m0 0h37l25 4 20 6 20 9 14 8 15 11 10 9 11 13 9 13 5 10-4 4-23 11-26 12-10 4-8-11-7-9-10-9-15-9-16-6-14-3-9-1h-15l-17 3-15 5-16 9-13 11-7 7-10 14-7 15-5 17-2 13v16l3 18 5 15 9 17 10 13 11 10 10 7 16 8 13 4 12 2h26l17-4 15-6 12-8 11-10 7-10 7-14 3-9-116-1 9-19 15-30 4-9h163l1 1v36l-3 24-6 21-6 15-8 15-9 13-11 13-9 9-13 10-15 9-19 9-15 5-25 5-10 1h-32l-20-3-19-5-21-9-17-9-12-9-13-11-8-8-11-14-9-13-8-14-8-20-6-23-2-14v-32l4-22 5-17 9-20 8-14 12-17 12-13 7-7 13-10 14-9 15-8 15-6 21-6z" fill="#FEFEFE"/>
<path transform="translate(1006,78)" d="m0 0h16l22 2 22 5 20 7 19 10 14 10 13 11 11 12 11 15 6 10-2 4-36 17-23 11h-3l-8-12-9-10-10-9-14-8-18-6-10-2h-30l-18 4-15 6-11 7-12 11-8 8-9 14-6 12-5 16-2 13v22l4 20 6 15 9 15 10 12 11 9 13 8 19 8 14 3 19 1 21-3 19-7 12-8 10-9 7-8 8-14 5-13-116-1 1-4 7-12 11-23 7-16 3-3h161l1 1v40l-3 22-6 21-8 18-10 17-11 14-10 11-14 11-10 7-23 12-21 7-18 4-19 2h-22l-24-3-21-6-17-7-17-9-17-12-14-12-10-11-12-16-9-16-9-19-7-23-3-21v-27l3-20 5-18 8-19 9-17 16-22 11-12 11-9 12-9 13-8 16-8 16-6 22-5z" fill="#FEFEFE"/>
<path transform="translate(1440,466)" d="m0 0h111l22 2 25 5 23 8 19 10 15 10 10 8 9 8 9 11 10 13 10 18 9 21 5 20 2 15v31l-3 19-6 20-5 12-10 18-9 13-12 13-12 12-15 11-16 9-15 7-20 6-14 3-17 2-22 1h-102l-2-2v-323zm70 66v196l45-1 19-3 15-5 19-11 12-11 9-10 9-15 6-18 2-10v-28l-4-17-7-16-7-12-11-12-9-8-16-9-15-6-16-3-11-1z" fill="#FEFEFE"/>
<path transform="translate(1198,84)" d="m0 0h71l1 1v174l1 32 3 14 5 13 7 10 9 9 12 6 12 3h25l13-4 12-7 7-7 7-11 4-11 3-17 1-205h71l2 1v30l-1 175-3 26-5 18-7 16-8 14-8 10-8 9-13 10-16 9-19 7-18 4-17 2h-24l-22-3-17-5-15-6-13-8-14-12-12-13-9-14-6-13-6-18-4-18-1-10z" fill="#FEFEFE"/>
<path transform="translate(631,83)" d="m0 0h98l3 2 15 36 35 87 32 79 11 27 22 55 12 29 4 9v2h-74l-4-8-12-30-9-23v-2h-131l-5 12-16 41-4 9-1 1h-71l-1-2 7-15 11-28 17-41 36-88 14-34 18-44 11-27v-9l-18-36zm67 93-8 20-31 80-2 7 82 1-1-6-17-47-19-51-2-4z" fill="#FEFEFE"/>
<path transform="translate(1834,461)" d="m0 0h35l22 4 17 6 12 6 14 10 14 14 9 14 8 17-8 5-16 8-35 17h-3l-5-13-8-11-11-7-13-5-13-2-15 1-12 4-10 6-6 7-4 9-1 3v11l4 10 4 5 10 6 13 4 41 8 21 5 16 6 17 9 11 9 6 5 11 14 8 16 4 13 2 12v17l-3 17-6 15-6 11-10 13-10 10-14 10-17 8-20 6-20 3h-33l-19-3-15-4-16-7-13-7-13-10-12-12-10-14-10-21 1-5 19-10 18-10 15-8 3-2h3l5 14 8 11 8 8 11 7 8 4 12 4 7 1h21l11-3 14-7 6-7 3-7 1-5v-7l-3-10-4-6-8-7-13-5-29-6-33-7-18-6-17-9-9-7-10-9-10-13-8-17-4-15-1-8v-13l2-14 5-16 8-16 8-11 9-10 14-11 16-9 15-6 17-4z" fill="#FEFEFE"/>
<path transform="translate(1494,84)" d="m0 0h195l1 1-1 61-1 1-122 1-1 65h113l-2 10-12 43-4 8h-95v72h124l1 5-1 57-1 1h-194l-1-188v-136z" fill="#FEFEFE"/>
<path transform="translate(884,467)" d="m0 0h195l1 61-3 2h-122v66l84-1h29l-1 8-14 51-1 2-96 1-1 71h125v63l-3 1h-191l-2-3z" fill="#FEFEFE"/>
<path transform="translate(318,467)" d="m0 0h194v62l-3 1h-121v66l37-1h76l-4 17-10 36-3 8h-96v72h124l1 61-1 2-4 1h-189l-2-1v-323z" fill="#FEFEFE"/>
<path transform="translate(318,84)" d="m0 0h194v62l-1 1h-123v66h113l-2 9-14 50-2 2h-95v72h124v63h-195v-324z" fill="#FEFEFE"/>
<path transform="translate(75,467)" d="m0 0h86l1 1-1 260h130l1 4-13 48-4 11-2 1h-175l-23-1 2-6 8-14 5-12v-259l-5-12-10-20z" fill="#FEFEFE"/>
<path transform="translate(76,84)" d="m0 0h85l1 1-1 261h131l-1 7-13 47-4 9h-199l1-5 6-10 7-14 1-3v-259l-5-14-9-17z" fill="#FEFEFE"/>
<path transform="translate(1771,171)" d="m0 0h27l15 4 14 7 11 9 9 10 8 14 4 10 2 9v23l-2 11-7 16-10 13-7 7-12 9-14 6-15 3h-23l-15-4-14-7-11-9-8-9-9-15-5-13-2-10v-16l3-14 6-15 7-10 9-10 12-9 15-7zm8 34-12 3-10 7-8 9-5 12-1 5v13l4 11 4 6 6 7 10 6 9 3h15l10-3 11-7 8-9 4-8 1-4v-20l-4-10-8-10-10-7-9-3z" fill="#FEFEFE"/>
<path transform="translate(1911,173)" d="m0 0h23l31 1v30l-2 2h-52v32h43l4 1-3 11-5 18-3 2h-23l-13-1v50l-35 1-1-1-1-7v-138z" fill="#FEFEFE"/>
</svg>
