<?xml version="1.0" encoding="UTF-8"?>
<svg version="1.1" viewBox="0 0 1400 952" width="350" height="238" xmlns="http://www.w3.org/2000/svg">
<path transform="translate(622,375)" d="m0 0h67l2 6 17 81 15 72 7 36h2l9-42 18-86 13-63 2-4h66l1 1v201l-1 1h-33l-1-1v-194l-1-1-4 16-15 71-22 105-1 3-2 1h-60l-3-7-27-128-12-57-1-3-2-1 1 5v190l-1 1h-33l-1-1-1-201z" fill="#FEFEFE"/>
<path transform="translate(265,630)" d="m0 0h67l2 5 19 92 18 87 2 11h2l16-76 14-67 9-43 2-9h67l1 1v201l-2 1h-32l-1-1v-195h-2l-5 25-24 115-11 52-1 3-7 1h-55l-2-3-15-70-14-67-9-44-1-12h-3v195l-2 1h-32l-1-1z" fill="#FEFEFE"/>
<path transform="translate(398,119)" d="m0 0h84l19 3 13 5 11 7 9 9 6 11 4 11 2 10v16l-3 15-8 16-9 10-10 6-12 5-18 3h-2v2h29l4 5 13 25 12 22 11 21v1h-40l-5-8-17-32-12-23-6-11-38-1v74l-1 1h-35l-1-1zm37 30v68h44l11-3 8-4 7-8 3-7 1-8v-9l-3-11-4-6-8-7-10-4-7-1z" fill="#FEFEFE"/>
<path transform="translate(744,116)" d="m0 0h22l17 3 15 6 14 9 10 9 7 8 8 14 6 14 4 17 2 16v16l-2 18-5 19-8 17-9 12-8 9-14 10-13 6-19 5-8 1h-17l-17-3-16-6-12-7-13-12-7-8-8-14-6-15-4-18-1-6v-31l4-21 6-16 7-13 8-10 10-10 14-9 11-5 15-4zm1 33-13 4-11 7-8 8-8 15-5 17-1 6v29l4 18 5 12 8 11 8 7 14 7 9 2h16l15-4 14-9 7-8 8-16 4-17 1-7v-20l-3-18-5-14-6-10-7-8-11-7-10-4-5-1z" fill="#FEFEFE"/>
<path transform="translate(315,372)" d="m0 0h20l17 3 13 5 11 6 10 8 9 9 8 13 5 12 2 11-2 1h-34l-2-2-3-7-6-10-9-8-11-5-8-2h-19l-13 4-10 6-10 10-8 16-3 9-2 12v26l3 17 7 16 8 11 11 8 14 5 5 1h17l15-4 12-7 7-9 4-8 3-13v-28l-4 2-7 8-8 8h-2l-2 4-2 1h-27v-29h88v30l-2 16-4 13-7 14-7 9-10 10-11 7-16 6-14 3-7 1h-18l-17-3-16-6-12-7-11-9-10-12-9-16-6-19-3-18v-29l4-22 7-18 7-12 7-9 11-11 11-7 10-5 13-4z" fill="#FEFEFE"/>
<path transform="translate(477,375)" d="m0 0h70l20 68 25 86 13 44v5h-38l-3-7-11-41v-2h-81l-3 8-10 37-3 5h-38l1-5 19-66 12-42 7-23 19-65zm34 8-3 9-13 47-17 62-6 20 1 4 14-12 8-8 9-7h40l-1-8-8-28-16-58-6-21z" fill="#FEFEFE"/>
<path transform="translate(512,630)" d="m0 0h36l1 1 1 139 4 11 7 9 8 6 12 5 5 1h16l11-3 10-5 6-5 6-9 3-10 1-7 1-133h37v138l-3 17-5 12-9 13-7 7-10 7-16 7-16 4-11 1h-15l-14-2-18-6-14-8-11-10-9-14-4-10-3-14-1-43z" fill="#FEFEFE"/>
<path transform="translate(1089,372)" d="m0 0h21l17 3 13 5 11 7 10 9 8 14 4 13 1 5-2 2h-34l-4-10-6-8-14-7-4-1h-21l-10 3-9 6-4 5-2 5v12l4 8 6 5 10 5 21 6 25 7 16 7 13 9 8 9 7 14 2 10v13l-3 12-7 14-8 9-12 8-12 5-11 3-16 2h-19l-18-3-17-6-13-9-7-7-7-12-4-12-2-13 1-1h35l5 15 5 6 10 6 9 3 5 1h18l13-4 10-6 4-5 3-10v-8l-4-8-7-6-15-6-24-7-21-6-14-6-11-8-8-9-6-12-2-7v-19l5-15 7-11 7-7 11-7 10-5 15-4z" fill="#FEFEFE"/>
<path transform="translate(767,627)" d="m0 0h22l16 3 15 6 12 8 8 8 8 16 3 10v6l-2 1h-33l-5-12-4-5-10-6-10-3h-20l-10 3-8 5-5 6-2 5v12l4 8 6 5 10 5 21 6 25 7 16 7 13 9 8 9 6 12 3 11v14l-4 15-6 11-7 8-10 7-12 6-21 5-11 1h-15l-20-3-12-4-13-7-11-10-7-11-4-11-3-13 1-4h35l1 1 2 10 6 9 9 6 11 4 6 1h16l12-3 9-5 5-5 4-7 1-5v-7l-3-8-8-7-15-6-32-9-21-7-12-7-10-9-7-11-3-9-1-5v-15l4-15 7-11 8-9 14-9 13-5z" fill="#FEFEFE"/>
<path transform="translate(1051,627)" d="m0 0h22l20 4 16 7 11 8 8 7 8 11 7 14 5 16-1 4h-36l-5-13-7-10-8-7-11-5-8-2h-19l-14 4-9 6-6 5-7 10-5 11-4 14-1 7v27l3 16 6 15 7 10 8 7 14 7 10 2h15l12-3 10-5 8-7 7-11 4-10h37l-4 16-8 16-8 11-7 7-14 9-13 6-16 4-10 1h-14l-18-3-12-4-15-8-13-11-8-10-8-14-5-12-4-15-2-13v-29l3-18 6-18 8-15 7-9 12-12 11-7 10-5 13-4z" fill="#FEFEFE"/>
<path transform="translate(869,375)" d="m0 0h131l1 1v28l-1 1h-94v81l8-7 18-18h61l1 1v29l-3 1h-85v75l-1 5 6-4 21-21h69l1 1v29l-2 1h-130l-1-1z" fill="#FEFEFE"/>
<path transform="translate(856,119)" d="m0 0h161l1 1v28l-3 1h-60v172l-2 1h-34l-1-1v-140l23-23 1-2h2l2-4 2-2-92-1z" fill="#FEFEFE"/>
<path transform="translate(559,119)" d="m0 0h89v29l-1 1h-25v142h25l1 1v29l-2 1h-86l-1-1v-30h26v-110l27-27 3-4-56-1z" fill="#FEFEFE"/>
<path transform="translate(866,630)" d="m0 0h89v29l-3 1h-23v142h26v30l-3 1h-85l-1-1v-30l25-1 1-109 30-30 1-2h-57z" fill="#FEFEFE"/>
</svg>
