<?xml version="1.0" encoding="UTF-8"?>
<svg version="1.1" viewBox="0 0 1400 1020" width="350" height="255" xmlns="http://www.w3.org/2000/svg">
<path transform="translate(62,332)" d="m0 0h75l19 1 16 3 13 4 12 5 16 10 14 12 12 13 11 16 9 16 8 14 5 4 11 6 5 2-1-22-5-1-8-4-10-6-1-2h102l-3 3-17 9-4 2v75l8 12 4 5-1 4-10 16-1 3v18l4 11 11 12 16 9 6 3 3 2 6-1 17-6 14-8 7-7 6-12 1-6v-15l-6-11-6-9 1-5 8-10 3-6v-72l-9-6-14-8-1-2h41l2 2-9 9 11-7 6-3 11-1h39l-4 4-14 8-5 1v75l6 10 5 7-1 7-9 14-1 2-2 17-4 18-6 13-7 12-18 18-13 8-12 6-18 6-14 3h-13l-19-5-16-6-14-7 1-5 6-12-8 7-4 4-5-2-10-10-9-13-7-15-4-13-2-11-1-12-6-11-6-10 2-4 9-14 1-3v-43l-10 5-11 8-13 24-7 11-10 13-9 10-9 9-14 9-8 4v1l27 1 8 2 7 12 29 43 10 14 12 13 10 8-7 12-5 8 16-16 5 1 14 7 10 2h9l13-3 7-4-1 5-11 14-8 7-7 3h-3l-1 108 6-10 11-12 3-1v-2l8-7 33-33 8-7 11-11 8-7 12-12 6-5 1-4-9-3-6-3 1-2h113v2l-21 10-12 7-16 15-11 11-8 7-15 15-8 7-43 43-8 7-2 2 2 1h15l22 1 11 13 8 10 26 32 9 12-1 4-11 9-13 7 9-3 20-10 4 1 4 6 14 18 8 7 13 9 8 3 1 3h-101v-3l9-2-3-7-7-8-11-14-13-16-11-14-11-13-11-14-8-10-4 2-14 15-7 8-15 16-2 3-1 33v27l1 11 4 8 10 17v2l-9 1h-9l-9 3-26 14-22 12-17 8-10 2h-5l5-5 5-4 6-4 12-35 3-7 9-8 7-9 6-6-4 2-13 10-7 4v-126l-6-2-20-11-2-3 19-10 8-4 1-89-5-1-11-7-2-3 4 1 9 3 15 2 11 2 16 1v-2h-14l-12-3-18-7-14-8-13-11-10-10-8-10-13-18-14-18-15-20-8-10-7-9h-56v27l1 55 7 12 6 12v3l-4 1h-15l-8 3-22 12-21 11-17 9-15 3h-2l1-4 5-4 7-4 3-7 7-19 2-8v-147l-25-14v-4l10-4 14-7 1-1 1-103 2-5 5 1 3 5 2 1-3-14-4-6-8-6-23-12-11-5-1-2zm24 53-1 2 16 8 1 1 1 27 4 7 8 13-4 7-8 11-1 39h64l5-2 10-8 9-7 7-8 7-9v-6l-9-14-1-6 10-14v-6l-10-13-9-9-11-7-12-4-6-1-54-1z" fill="#FCFCFC"/>
<path transform="translate(880,403)" d="m0 0h204l2 4 6 51 2 10-4-2-11-12-5-5-82-1 1-3 18-13h-3l-24 13h-2l-1 3-22 1-1 36-2 3-4 2-3 6-3 4 9-5h2l2-4 109-1-1 3-27 16-3 4-2 8-2 15h-75l1 43 3 10 9 10 8 7 5 10 3 5 1 3 26-14 23-11 24-11 1-2-11-4-9-5-1-2 52 1-1 4-10 22 1 5 6 7v3l-12 7-19 11-24 13-10 6-5 2 10-1 15-4 7-1 20 5 13 5 19 10 11 7 4 3 7-1 10-2h6l-2 4-7 7-9 11-11 13-9 11-12 14h-3l-5-8-7-8-12-9-14-8-21-10-10-4-5 1-25 11-16 9-10 8-10 10-6 10-5 14v7l10 15 7 9-2 7-12 17-3 6v8l4 12 6 11 9 10 9 7 15 9 19 9 11 5h6l24-11 17-9 13-10 10-11 7-15 3-12v-6l-6 2-12 3-15 3h-9l1-4 3-4 26-7 12-1 1 2 5-1 5-8-8 3-39 8-14 5-11 8-18 7-6 5-5 6h-1v-10l12-36 1-5-4-8-8-11v-2l169-1-3 4-11 6-9 5-1 166-6 7-1 5 5-2 3-4h4l2 5 1 9-1 1-22 3-5-1-27-14-12-5-16-3 1-4 13-26-16 8-16 5-17 3-12 1h-13l-20-2-23-6-16-7-16-9-13-10-16-16-12-17-8-16-6-15-5-21-2-16-5-2-7-4-7-1-2 5-5 9v102l14 16v2l-6-1-33-15-3-1-41-1 2-4 9-16-4-7-11-13-8-10-13-16-9-11-26-32-9-11-13-16-5-7v-2h-2l4 15 1 1 1 105 1 3 10 6v2l-15-1h-71l3-5 16-8 3-3v-70l-2-5-7-10-2-4v-7l10-14 1-73-4-4-20-11v-2l88-1-2 4-8 2 2 6 11 14 13 16 11 14 13 16 11 14 14 17 20 25 8 11-2-12-2-5-1-14v-97l-1-3-9-5-1-2 88-1-1 3-23 13v73l6 10 2 4h6l9-5 3-2 3-19 5-17 7-17 10-16 8-10 15-15 16-12 17-9 11-3-10-6-15-8-10-8-7-6-9-12-7-14-5-17-1-7-1-45-5-9-7-11 1-5 9-12 2-6v-70l-9-6-16-9z" fill="#FCFCFC"/>
<path transform="translate(1081,332)" d="m0 0h127l3 2-7 7-10 6h-2v2l13-4 12-6 6-6h19l19 3 15 4 16 8 11 7 13 12 8 9 9 13 9 15 11 22 12 31 7 19 1 4 5 2 17 8 5 2-3 3-24 13-3 9-11 32-10 24-8 14-3 2-17 1-11 3-8 7-15 14-14 14 7-4 16-11 11-8 12-9 3-2 5-1h11l-4 8-10 14-8 10-9 10-9 9-11 9-16 11-20 12-6 3h-2l7 12 12 7 2 4-20-1-10-3-28-14-7-4 1-4 17-13 9-7-16 8-13 7-6 5-23-11-66-33 3-3 9-3v-117l-19-10-9-6 1-2 8-3 17-8 2-2v-125l-6-2-23-12-8-4v-2zm80 53 2 4 13 5 1 57 1 12 3 5 14 20 3 4-2 5-17 26-1 2-1 9v67l1 4 12 5 25 12 11 5 5-2 14-10 13-10 7-6 7-8 8-9 11-17 8-16 8-21-1-6-16-24-3-6 7-8 6-10 2-2-1-9-10-27-11-21-9-11-9-8-14-7-6-2-7-1z" fill="#FCFCFC"/>
<path transform="translate(623,403)" d="m0 0h87l-1 3-8 3 1 4 11 14 10 12 11 14 13 16 11 14 14 17 11 14 14 17 7 10-2-11-2-5-1-12v-101l-1-3-9-3-1-3h87v2l-16 9-7 4v72l3 6 9 12-1 6-10 16-1 2v100l10 13 5 5-1 2-10-4-17-8-15-6h-41l2-5 8-14v-5l-9-11-14-17-11-14-11-13-11-14-11-13-11-14-10-12-10-14h-1l4 15 1 1 1 107 10 5v3h-82l-3-1 2-4 19-9 1-7v-66l-11-18-1-5 9-14 2-3 1-41v-32l-8-5-14-8z" fill="#FCFCFC"/>
<path transform="translate(695,6)" d="m0 0 3 1 7 23 6 20 1 7 1 24 1 45 2 32 5 54 7 3 10 11 5 3-1 10-6 21-7 19-8 18-12 25-8 17-2 3h-2l-7-13-12-12-11-8-5-8-13-28-8-21 1-5 9-6 7-9 7-15 5-16 3-21 5-64 3-60 2-15 11-34z" fill="#FCFCFC"/>
<path transform="translate(512,403)" d="m0 0h103l-4 4-15 8-5 1 1 76 7 11 5 6-1 4-10 15-1 2-1 71 1 4 19 9 3 3v2h-99l2-4 20-10 1-1v-73l-11-17-1-6 8-10 3-5 1-4v-70l-8-5-15-9z" fill="#FCFCFC"/>
<path transform="translate(610,677)" d="m0 0h5l-1 3-21 12h-2l1 75 7 11 4 5-1 6-9 14-1 1-1 38v38l5 2 15 8 5 4h-21l-73-1-3-1 2-4 17-9v-73l-11-17-1-5 7-10 4-6 1-4v-70l-9-6-15-8v-2z" fill="#FCFCFC"/>
<path transform="translate(790,84)" d="m0 0 3 1 12 17 6 12 8 31 14 59 5 19 5 9 8 7v17l-3 9-10 14-8 8-22 13-14 10-4 1-5-25-5-14-4-7 1-5 13-20 2-5v-60z" fill="#FCFCFC"/>
<path transform="translate(592,83)" d="m0 0h1v131l3 17 5 15v8l-5 12-8 17-9 15-6 11-2 4-4-2-10-18-12-26-11-25v-4l9-6 4-5 4-8 7-27 13-60 6-28 6-10 7-9z" fill="#FCFCFC"/>
<path transform="translate(837,968)" d="m0 0h12l12 16 8 11 3 4v-31h10v48l-5 1-2 1 2 2-4-1-9-11-10-13-5-7-1 29-2 2-7-1-1-2z" fill="#FCFCFC"/>
<path transform="translate(513,967)" d="m0 0h11l9 3 6 6 1 7-6 1-10-5-8-1-7 3-4 5-1 3v9l5 8 6 2h7l6-3 2-6-11 1-3-1v-6l2-2h25v9l-6 12-5 4-7 2h-11l-9-1-6-5-6-10-2-10 3-11 7-9 7-4z" fill="#FCFCFC"/>
<path transform="translate(768,967)" d="m0 0h9l10 2 8 8 1 5-2 1h-8l-10-5-8 1-5 3-4 8v7l4 8 7 3h8l6-3 1-5h-14v-8l2-1 25-1 1 1v8l-4 10-5 6-5 2-11 1-13-1-5-3-6-8-2-5v-15l5-10 7-6z" fill="#FCFCFC"/>
<path transform="translate(887,968)" d="m0 0h23l10 4 5 5 4 8 1 4v10l-3 7-6 8-3 2-5 1h-25l-1-1zm14 10-3 3v25l1 2h10l6-4 4-8v-7l-3-6-5-4-3-1z" fill="#FCFCFC"/>
<path transform="translate(546,968)" d="m0 0h12l1 1v29l2 8 1 1h10l3-3 1-36h12l1 4-1 32-3 7-4 5-4 1h-20l-5-3-4-7-1-4z" fill="#FCFCFC"/>
<path transform="translate(461,968)" d="m0 0h15l3 7 8 21 7 19-2 3h-4l-1 2-7-10-4-1h-13l-3 1-5 8-5 1-1-1 1-12 7-19 3-8zm7 17-2 4-1 8 2 2h8l1-4-5-10z" fill="#FCFCFC"/>
<path transform="translate(948,967)" d="m0 0 10 1 8 4 2 5-5 5-5-1-3-2-8-1-3 1v5l10 4 9 3 5 5 1 3v9l-3 7-4 2h-19l-7-2-3-5 1-9 15 7h8v-6l-7-3-11-4-5-4-1-2v-10l4-7 6-4z" fill="#FCFCFC"/>
<path transform="translate(411,968)" d="m0 0h31v8l-1 2h-18v9h16v8l-1 2-14 1-1 10h18l1 1v8h-29l-1-7z" fill="#FCFCFC"/>
<path transform="translate(715,968)" d="m0 0h30v8l-1 2-17 1v8h15v9l-1 1-15 1v10h18l1 1v8h-29l-1-12z" fill="#FCFCFC"/>
<path transform="translate(802,968)" d="m0 0h32l-1 9-1 1-19 1v9l16-1 1 5-1 5-16 1v10h20l1 5-1 4h-30z" fill="#FCFCFC"/>
<path transform="translate(593,968)" d="m0 0h29l1 5-1 5-17 1-1 7 16 1v9l-10 2-6 1v8l17 1 2 7-1 2h-29z" fill="#FCFCFC"/>
<path transform="translate(679,968)" d="m0 0h13v40h19l1 1v8h-31l-1-7z" fill="#FCFCFC"/>
<path transform="translate(375,968)" d="m0 0h13l1 2-1 38h20v9h-31l-1-39z" fill="#FCFCFC"/>
<path transform="translate(595,272)" d="m0 0h3l-1 13-3 19-9 25-2 1-7-12v-8l7-15 6-14z" fill="#FCFCFC"/>
<path transform="translate(824,293)" d="m0 0 2 1-5 8h-2l-2 4-13 16-11 12h-2v-18l5-5 10-7 13-8z" fill="#FCFCFC"/>
<path transform="translate(1149,971)" d="m0 0h12l7 6 10 4 1 2-12 4-2 1-15-6-11-6-4-4z" fill="#FCFCFC"/>
<path transform="translate(638,981)" d="m0 0h8l7 6 2 6-1 7-8 5h-9l-6-5-1-2v-10l4-5zm2 4-3 2-1 3v8l3 2 7-1 1-2v-7l-5-5z" fill="#FCFCFC"/>
<path transform="translate(1042,980)" d="m0 0h7l7 3v20l-1 1h-5l-3-7v-8l2-5-4 1v5l1 3-2 12-5-1-1-3v-17z" fill="#FCFCFC"/>
<path transform="translate(1023,980)" d="m0 0 7 1 4 5 2 5v6l-4 6-4 3h-6l-7-6-1-3v-8l3-5zm1 5-3 2-1 3v8l5 3 5-3 1-7-4-6z" fill="#FCFCFC"/>
<path transform="translate(1176,934)" d="m0 0h22l7 3 4 7 6-1-2 8-4 1-6-8-2-1 1 10 2 3-5-1v-18h-7l-2 1-1 19h-4l-1-20h-8l-2-2z" fill="#FCFCFC"/>
<path transform="translate(352,980)" d="m0 0 4 1 4 6 7 18h-3l-8-4-6 1-4 4-2-1 2-10 3-1 2-13zm-1 12 1 3v-3z" fill="#FCFCFC"/>
<path transform="translate(984,980)" d="m0 0h9l-1 3-5 2-2 4h5l6 7v5l-7 5-7-1-3-3v-17zm0 9m0 5 1 2zm1 2v6l5-1v-3z" fill="#FCFCFC"/>
<path transform="translate(997,980)" d="m0 0h14l1 4-2 4-1 14-1 3-4 1-1-1-1-12-1-5h-2l-3-5z" fill="#FCFCFC"/>
<path transform="translate(657,981)" d="m0 0h12l-1 4-8 1v4l6-3h2v8l-4 3-3 1-1 5-5-1 1-5v-16z" fill="#FCFCFC"/>
<path transform="translate(657,320)" d="m0 0 6 1 13 9 6 5-1 4-11-3-8-5-5-8z" fill="#FCFCFC"/>
<path transform="translate(1055,512)" d="m0 0 5 1 1 7-4 6-6 4h-6l1-8 4-6z" fill="#FCFCFC"/>
<path transform="translate(1057,981)" d="m0 0 6 1 8 6 1 8-1 9h-3l-8-18-4-5z" fill="#FCFCFC"/>
<path transform="translate(472,611)" d="m0 0h5l-1 9-1 2-3 1h-8l-4-1 1-5 8-5z" fill="#FCFCFC"/>
<path transform="translate(19,350)" d="m0 0 6 2 11 7 1 5-2 2h-6l-5-5-5-8z" fill="#FCFCFC"/>
<path transform="translate(1220,934)" d="m0 0h3l1 11v10l-4 2-2-1v-21z" fill="#FCFCFC"/>
<path transform="translate(830,321)" d="m0 0 4 2 3 3 1 4-7 2h-9l3-5z" fill="#FCFCFC"/>
<path transform="translate(20,662)" d="m0 0 4 1-1 7-6 6h-4l1-5 4-8z" fill="#FCFCFC"/>
<path transform="translate(1074,980)" d="m0 0h3l1 5-3 5-3 1 1-10z" fill="#FCFCFC"/>
<path transform="translate(1061 1e3)" d="m0 0h2v2l-4-1z" fill="#FCFCFC"/>
<path transform="translate(597,1019)" d="m0 0 4 1z" fill="#FCFCFC"/>
<path transform="translate(810,1019)" d="m0 0 2 1z" fill="#FCFCFC"/>
<path transform="translate(722,1019)" d="m0 0 2 1z" fill="#FCFCFC"/>
<path transform="translate(432,1019)" d="m0 0 2 1z" fill="#FCFCFC"/>
<path transform="translate(418,1019)" d="m0 0 2 1z" fill="#FCFCFC"/>
<path transform="translate(942,1019)" d="m0 0" fill="#FCFCFC"/>
<path transform="translate(894,1019)" d="m0 0" fill="#FCFCFC"/>
<path transform="translate(605,1019)" d="m0 0" fill="#FCFCFC"/>
<path transform="translate(383,1019)" d="m0 0" fill="#FCFCFC"/>
<path transform="translate(378,1019)" d="m0 0" fill="#FCFCFC"/>
<path transform="translate(1134,971)" d="m0 0" fill="#FCFCFC"/>
<path transform="translate(826,292)" d="m0 0" fill="#FCFCFC"/>
</svg>
