<?xml version="1.0" encoding="UTF-8"?>
<svg version="1.1" viewBox="0 0 2048 668" width="349" height="114" xmlns="http://www.w3.org/2000/svg">
<path transform="translate(6,157)" d="m0 0h136l22 2 18 4 13 5 14 9 6 5 9 12 6 13 4 14 2 15v21l-3 22-6 23-10 25-12 23-10 15-10 14-3 4 1 6 6 15 10 28 11 30 16 45 19 52 7 17 7 11 8 10 5 6v1l-7 1h-95l-6-2 12-24 2-12-4-15-18-49-16-45-9-28h-2l-14 12-16 13-6 5-1 10v89l2 14 6 11 9 12 4 6v2l-4 1h-102l-2-2 7-11 8-13 3-6 1-6v-361l-4-13-12-25-7-9v-1zm85 52v174l5-3 10-8 14-12 20-20 9-12 8-14 7-20 3-16v-32l-2-10-5-10-9-10-6-4-11-3z" fill="#FDFDFD"/>
<path transform="translate(1796,160)" d="m0 0h220l-3 6-11 18-6 15-1 5 1 31 7 103 8 108 4 61 4 49 3 14 6 12 10 13 8 8v1l-17 1h-87l-5-1 2-5 8-9 6-13 1-6v-13l-8-122-1-26h-78l-1 19-8 119v25l4 11 7 11 6 7v2l-5 1h-69l-34-1 4-6 9-10 6-10 4-11 2-7 2-24 4-58 12-166 6-90v-19l-5-15-8-15-6-9zm107 53-23 1-5 77-4 56v5h69l-1-23-7-106-1-9-1-1z" fill="#FDFDFD"/>
<path transform="translate(488,171)" d="m0 0h106l2 4 6 28 22 93 13 52 11 46 9 36 6 25 4 12v-29l-1-35v-196l-5-15-8-16-1-5h86l-1 5-7 11-7 15-1 9-1 119v176l1 16 3 10 7 12 1 8-48 1h-52l-3-3-7-26-11-46-15-63-17-69-13-57-4-24v-3h-3v255l4 13 10 18 1 4h-85l-1-3 10-18 4-11 1-65v-103l-1-151-4-10-9-14-2-3z" fill="#FDFDFD"/>
<path transform="translate(1560,171)" d="m0 0h120l22 2 15 4 10 4 11 8 8 8 8 13 5 13 2 10v29l-3 18-6 19-8 19-10 17-8 12-9 11-4 4 3 10 13 42 18 61 11 36 8 20 11 16 2 5h-87l-1-2 5-17-1-11-9-35-9-34-10-41-1-8-9 6-15 12-10 7v85l3 12 6 12 5 8 1 6h-88l1-7 11-21 2-11v-306l-4-11-9-17-2-3v-4zm73 43-1 1v148l9-6 13-11 20-20 9-13 8-16 4-14 2-13v-19l-3-15-5-9-4-5-6-4-10-3-12-1z" fill="#FDFDFD"/>
<path transform="translate(1332,171)" d="m0 0h117l24 2 16 4 14 7 11 9 9 12 5 11 3 11 2 18-1 21-3 16-8 24-8 16-11 18-10 14-7 8 1 5 8 27 22 72 10 33 7 23 9 16 6 10 1 4h-86l1-7 3-11v-9l-9-36-13-50-6-24-1-11-7 4-16 13-11 8-1 7v67l1 14 4 13 11 20v2h-88l-1-4 10-18 3-7 1-5v-312l-4-11-8-15-3-5v-3zm71 43-1 4v146l7-4 14-12 12-11 9-9 12-17 7-14 4-16 1-9v-22l-3-14-5-10-8-7-7-3-5-1-16-1z" fill="#FDFDFD"/>
<path transform="translate(249,171)" d="m0 0h91l-2 5-6 8-7 15-1 4-1 39v216l2 18 7 12 7 7 10 5 4 1h18l10-4 9-7 6-7 4-11v-269l-4-12-7-12-4-6v-2h90l1 3-10 14-4 10-1 4-1 16-1 239-2 19-4 16-11 23-8 10-6 7-11 9-11 7-12 5-12 3-18 2h-10l-14-2-12-4-16-8-9-6-10-9-9-12-10-19-6-15-3-16-1-10-1-72v-181l-4-13-9-15z" fill="#FDFDFD"/>
<path transform="translate(277,582)" d="m0 0h1485l-2 4-8 7-19 10-6 1-53 1h-450l-52 1-33 3-26 5-27 9-14 8-11 9-10 9-8 10-6 9h-12l-4-8-9-11-8-8-14-10-15-8-16-6-21-5-24-4-25-2-48-1h-450l-81-1-5-3-9-2-11-7-6-5z" fill="#FDFDFD"/>
<path transform="translate(1148,171)" d="m0 0h160l2 2-12 40-3 11-4 2-12-6-6-1-43-1-11-1v74h61l24 1-1 8-8 26-8 24h-4l-10-5-4-1-50-2v158l73-1 13-2 7-2 5 1-8 37-4 16-2 3h-158l1-6 7-12 5-8 2-6v-314l-5-14-9-15-1-5z" fill="#FDFDFD"/>
<path transform="translate(757,171)" d="m0 0h162l-3 9-7 24-7 22-6-2-7-4-5-1-40-1-17-1v74h82l4 1-2 10-14 44-2 4-4-1-5-3-9-2-17-1-33-1v159l3-1 69-1 17-2h10l-3 10-8 33-4 13h-55l-102-1-1-2 13-26 2-7v-311l-3-10-7-13-5-8v-3z" fill="#FDFDFD"/>
<path transform="translate(933,171)" d="m0 0h198l-3 10-12 42-2 3-5-2-9-4-6-1-34-2 1 298 3 12 5 10 8 12v3h-89l-2-2 6-11 8-14 1-3 1-12 1-293-36 3-10 3-4 2h-5l-2-3-4-15-9-31z" fill="#FDFDFD"/>
<path transform="translate(1452,8)" d="m0 0 17 1 15 4 11 6 10 9 7 10 5 12 2 9v24l-4 13-6 11-10 11-11 7-10 4-9 2-9 1h-11l-12-2-15-6-9-7-8-9-6-10-5-14-1-6v-17l3-12 8-16 11-12 11-7 11-4zm3 18-13 2-8 4-8 7-6 10-4 12v21l4 11 6 8 9 8 10 4 7 1h8l10-2 10-5 6-5 6-9 3-7 1-5v-22l-3-10-6-10-8-7-9-4z" fill="#FDFDFD"/>
<path transform="translate(1071,10)" d="m0 0h41l19 1 15 3 12 6 10 9 8 14 4 12 1 5v20l-3 13-7 13-11 12-10 6-8 3-15 2h-56l4-7 2-7v-95l-4-6zm32 18-3 1-1 36v46l4 1 25-1 9-2 8-5 7-8 4-9 2-11v-15l-3-11-5-9-5-6-10-5-15-2z" fill="#FDFDFD"/>
<path transform="translate(1009,9)" d="m0 0 29 1-2 4-3 3-1 3-2 112-5-2-9-11-12-14-14-17-11-13-12-14-13-16-1 54v19l2 5 5 4v2l-31 1 1-5 3-5v-98l-3-7v-5l20 1 6 3 9 10 8 10 14 17 9 10 9 11 7 8-1-59-3-8z" fill="#FDFDFD"/>
<path transform="translate(717,8)" d="m0 0h14l22 3 5 3 2 6 1 7v13l-8-3-16-8-10-2h-12l-12 3-10 7-7 9-5 13-1 15 2 13 6 10 4 5 10 7 9 3 6 1h15l9-3 3-2v-23l-3-16v-5l4 1h25v6l-2 5-1 48-8 3-14 3-9 1h-28l-13-3-14-7-10-9-7-10-5-11-2-6-1-7v-17l4-15 6-11 9-10 7-6 8-5 12-4z" fill="#FDFDFD"/>
<path transform="translate(546,9)" d="m0 0h60l15 1 2 19-2 2-48-2-1 26h44l-2 6-7 11h-35v39l45-1 5-2 4-5 3 1-1 13-3 11-2 1-79 1 2-5 2-4v-103l-4-6v-2z" fill="#FDFDFD"/>
<path transform="translate(812,9)" d="m0 0h74l1 1 1 21-2 2-4-2-8-1-37-1v26l45-1-2 6-6 10-2 2h-34l-1 40 4-1 38-1 10-2 5-5h2l-1 10-5 15-1 1-57 1h-21l3-12v-80l-1-21z" fill="#FDFDFD"/>
<path transform="translate(1248,8)" d="m0 0h22l12 1 2 5 4 19v4l-4-1-15-7-8-2h-12l-9 3-4 4v8l5 6 14 7 21 8 9 6 7 8 4 10v12l-4 10-6 8-7 7-11 5-9 2h-31l-11-2-4-3-5-21 1-5 5 2 16 8 14 3h10l10-4 5-5 3-4 1-5-3-7-5-5-36-14-9-7-6-7-2-7v-11l4-11 6-8 10-6z" fill="#FDFDFD"/>
<path transform="translate(1562,9)" d="m0 0h60l1 1 1 11 2 6v4l-41-2h-10v31h41l-2 6-8 10-4 2h-28l1 41 1 6 6 3v2h-37l1-3 4-1v-108l-3-5-1-3z" fill="#FDFDFD"/>
<path transform="translate(426,9)" d="m0 0h30l-2 5-2 4-1 22-1 72 9-1 38-1 7-2 5-6 2 1v7l-6 18-1 1h-81l3-8 1-9v-91l-2-6v-5z" fill="#FDFDFD"/>
</svg>
