<?xml version="1.0" encoding="UTF-8"?>
<svg version="1.1" viewBox="0 0 2048 631" width="350" height="108" xmlns="http://www.w3.org/2000/svg">
<path transform="translate(1213,74)" d="m0 0 12 6 21 14 16 13 15 14 15 16 9 11 10 13 13 18 12 19 15 25 12 22 7 14 6 9-2-16v-20l3-31 5-29 6-20 9-20 6-10 10-13 7-7 14-10 14-7 19-5 8-1h30l20 3 19 5 20 7 25 11 34 17 15 8 25 10 23 6 31 4 5 2-4 2-8 1h-39l-20-3-62-16-22-4-10-1h-27l-22 5-18 8-14 10-11 11-9 13-8 16-6 16-5 19-3 19-1 13v38l3 28 4 23 8 31 8 24 11 23v2l-16-3-21-7-23-11-18-12-11-9-12-11-7-7-7-8-12-15-14-21-9-15-13-24-10-20-6-9-3 31-5 26-7 24-8 20-8 16-9 15-10 13-11 12-9 9-14 11-16 10-19 9-18 6-24 5-10 1h-28l-22-2-11-2v-3l25-6 18-6 21-10 12-8 13-10 8-7 9-11 9-12 10-17 8-17 6-17 6-20 6-28 4-32 3-35 1-21v-79z" fill="#FDFDFD"/>
<path transform="translate(178,84)" d="m0 0h24l20 3 19 6 17 8 19 12 16 9 11 4 11 2h12l20-4 29-11 18-5 21-2 15 2 13 4 10 5 11 8 4 6-4 1-15-4h-26l-17 4-12 5-11 7-19 14-14 11-15 8-16 5h-20l-16-4-35-12-22-6-17-3h-23l-16 4-11 6-8 8-5 10-2 7v16l3 10 6 11 11 12 11 9 18 12 14 10 13 10 10 9 8 7 10 11 10 14 7 14 4 13 1 6v23l-4 13-6 11-8 10-11 11-15 10-17 8-22 6-24 3h-9l-22-3-18-6-16-8-11-8-10-9-8-8-11-16-15-28v-2l6 2 13 9 16 8 17 6 17 4 11 1h16l14-2 16-6 8-6 6-8 2-7v-10l-4-12-6-10-9-10-11-10-17-12-21-14-10-8-10-9-11-11-10-14-8-16-5-13-3-17v-15l3-16 6-16 10-16 12-13 11-10 14-9 16-8 17-6 19-4z" fill="#FDFDFD"/>
<path transform="translate(1042,147)" d="m0 0h14l14 7 13 4 12 7 18 13 13 10 10 8 10 9 7 7 7 10 3 7 1 17 3 6 7 10 3 7v10l-4 23-6 28-4 15-8 16-8 10-10 10-11 9-8 4-13 5-20 12-18 8-12 7-4 1h-28l-23-3-9-2-32-1-12-3-12-5-30-15-12-9-6-7-2-6 10 2 19 8 23 7 21 5 15 2h32l17-3 21-6 20-8 9-6 3-1 2-4 8-10 10-18 12-25 9-11 11-13 16-16 2-4-1-7-4-6-6-3h-10l-11 4-17 8-4 1h-13l-4-5-2-10-1-13v-10l6-36v-11l-4-12-4-3-9-1-8 4-4 5-3 10-5 30-4 22-4 12h-3l-3-4-3-22-2-21-1-17-3-14-5-9-3-2h-8l-7 4-6 7v20l4 38v15l-4 3-5-2-4-8-7-16-14-28-7-10-3-2h-10l-8 7-2 3v8l15 38 12 25v4l-4-1-8-7-12-14-7-8-5-4-5-2h-9l-7 4-4 5 1 8 6 11 9 13 8 16 9 29 11 26 6 11 8 10 13 13v2l-32-3-16-3-19-7-20-10-11-8-8-8-4-14v-14l1-5v-13l-3-7 2-12 5-21 4-24 2-15 6-10 9-12 12-12 14-9 14-7 21-8 23-6 28-4 31-3z" fill="#FDFDFD"/>
<path transform="translate(1801,191)" d="m0 0h17l24 3v3l-14 12-9 13-8 17-6 20-3 16-2 16-1 16v11l2 25 3 19 7 26 8 20 3 6v3l-17-2-21-5-16-6-16-8-11-8-14-12-10-11-13-19-1-1-3 21-5 13-7 13-9 12-8 9-13 10-14 8-12 5-17 4-6 1h-16l-26-4-12-3-1-2 21-6 16-7 12-8 11-11 9-14 6-14 6-22 4-25 2-40 1-53 2-14 4-8 6-3h7l8 4 11 11 12 17 12 19 16 25 17 25 4 5v-24l3-26 4-17 6-16 8-14 7-9 8-7 16-8z" fill="#FDFDFD"/>
<path transform="translate(747,180)" d="m0 0h24l13 4 10 6 8 9 5 11 2 9v11l-3 11-6 10-8 9-10 6-15 5-5-1-1-1v-9l-3-10-4-6-5-3-8-1-11 4-11 8-10 12-8 16-5 16-1 7v17l3 15 7 14 9 10 9 6 12 4h13l12-6 6-5 5-10-1-5h-17l-7-2-7-6-6-10-5-9 1-4 24-2 24-5 21-7 15-8h2l2 7 4 23 5 20 7 20 12 23 8 11 9 10 11 10v2l-7 2-17 1-16-2-10-4-11-7-6-5-5 1-8 6-12 6-16 5-13 2h-24l-20-4-15-6-14-8-13-11-9-10-9-15-7-18-4-20-1-10v-12l3-24 6-20 7-16 10-16 11-13 9-9 15-11 19-10 15-5z" fill="#FDFDFD"/>
<path transform="translate(624,186)" d="m0 0h27l4 2-9 8-5 4-9 12-8 16-7 21-4 20-3 31 1 26 4 28 6 24 8 21 4 10v2l-30-5-20-7-16-8-11-7-11-9-13-12-11-13-9-12-5-5v11l-4 17-8 17-10 13-7 8-11 8-11 6-15 5-11 2h-14l-13-2-19-5-8-4 3-3 21-9 13-8 10-8 7-8 8-13 6-14 4-19 2-15 2-73 2-22 4-10 5-5 4-2 7 1 8 6 12 12 16 23 10 16 19 28 10 14 4 5 1-23 3-19 5-16 5-13 9-16 8-10 10-10 12-7 12-4z" fill="#FDFDFD"/>
<path transform="translate(1590,183)" d="m0 0h24l16 3 2 3-6 7-4 9-3 14-2 16-2 35-2 48-3 20-4 15-7 16-9 13-9 10-14 9-15 5-5 1h-21l-12-3-14-7-9-7-5-5-9-10-8-14-7-19-4-22-1-17 2-23 4-23 7-21 7-10 4-5 9-6 9-4 17-3h7l-3 23-3 29-1 17v36l2 25 4 14 6 8 4 3h8l5-5 4-11 2-14 1-13 2-71 2-27 3-14 4-7 7-8 11-7z" fill="#FDFDFD"/>
<path transform="translate(1955,181)" d="m0 0h16l20 4 3 2-1 4-5 4-5 7-4 18-2 24-1 57-1 22-5 25-8 20-8 12-9 10-9 7-12 6-11 3-7 1h-16l-13-3-16-8-10-8-7-7-9-14-8-20-4-20-1-10v-20l2-21 5-25 5-16 7-10 7-6 12-6 20-5h5l-1 12-4 42-1 23v36l2 20 4 12 7 8 3 2h8l4-6 4-20 2-21 5-87 3-19 6-12 7-8 10-6z" fill="#FDFDFD"/>
<path transform="translate(356,195)" d="m0 0 14 2 13 5 11 7 10 9 7 8 9 15 6 16 3 14 1 9v15l-3 21-6 18-9 17-10 13-10 9-13 8-15 5-5 1h-22l-15-5-13-8-11-10-10-15-7-15-4-13-2-10v-27l4-20 7-19 10-17 12-13 10-8 16-8 12-3zm-6 57-5 3-4 5-5 12-2 12v15l3 15 4 10 8 7 5 1 8-6 5-10 3-13v-23l-4-16-6-9-5-3z" fill="#FDFDFD"/>
<path transform="translate(1e3)" d="m0 0h15l11 18 12 22 10 28 6 15 5 19v9l-5 4-6 2h-45l-25-2h-14l-8-2-3-2-1-3v-8l3-20 6-12 3-5 2-12 5-12 12-23 5-5 8-5z" fill="#FDFDFD"/>
<path transform="translate(1165,61)" d="m0 0h8l5 6 5 15 1 2v9l-5 30-7 28-4 7-5 2-16 3h-10l-10-5-23-14-14-10-9-8-1-5 4-7 12-11 33-22 29-17z" fill="#FDFDFD"/>
<path transform="translate(857,68)" d="m0 0h6l11 6 14 8 14 11 15 12 8 6 4 4-1 12-3 5-10 7-19 13-26 15-9 5-5 1-7-6-2-4-1-15-3-12-9-17-3-14-1-10v-12l3-7 6-5z" fill="#FDFDFD"/>
<path transform="translate(1810,96)" d="m0 0 14 1 9 4 6 7 1 3v14l-7 14-8 10-9 9-13 10-14 8-17 6-21 4-10 1h-24l-25-4-21-7-19-9-4-2 2-2 34 7 18 2h27l21-3 18-6 13-7 12-9 8-8 6-10 2-10-3-6-2-1h-7l-6 3-2 2v6l3 2 5-1 5-2-1 5-5 6-7 1-6-3-3-8 1-8 3-6 8-7 8-4z" fill="#FDFDFD"/>
<path transform="translate(425,79)" d="m0 0h26l15 2 15 5 14 8 11 9 9 8 11 14 8 13 4 11-1 9-8 9-5 2-6 1h-17l-9-3-8-6-6-9-1-9 6-9 6-2 6 4 1 5-5 3-6 1 5 8 3 2h8l3-3 1-2v-9l-6-12-9-11-12-9-16-8-17-5-14-2h-38l-25 4-17 5-4-1 16-8 17-6 23-6z" fill="#FDFDFD"/>
<path transform="translate(708,546)" d="m0 0h10l13 3 9 6 6 7 1 8-1 2-3 1h-9l-14-8-4-1h-8l-9 4-5 5-4 8-1 4v8l3 9 4 4v2l5 2 8 3h8l12-6 3-7h-25l-1-1 1-8 4-6 5-2h17l16 1 2 2v15l-3 9-8 10-9 8-5 3h-28l-9-6-7-6-8-12-4-11v-16l4-11 8-11 10-7 9-4z" fill="#FDFDFD"/>
<path transform="translate(1219,548)" d="m0 0h19l4 2 12 18 13 19 8 12 1-51h16v83h-15l-14-18-13-18-11-16-1 52h-17l-1-77z" fill="#FDFDFD"/>
<path transform="translate(1113,546)" d="m0 0h12l12 3 10 6 5 6 2 5-1 5-7 2h-6l-9-6-7-3h-9l-10 4-6 8-3 8v11l5 10 8 6 7 2h7l10-4 4-4 1-5h-24l-1-5 3-9 7-2 33-1 2 1v17l-4 10-6 8-9 8-7 4h-27l-10-7-7-6-7-10-4-13v-13l3-10 6-10 8-8 8-5z" fill="#FDFDFD"/>
<path transform="translate(981,281)" d="m0 0 12 1 7 4 5 4 7 12 3 13v12l-4 13-6 9-7 7-8 5-4 1h-10l-9-4-8-7-7-12-2-7v-20l5-14 9-10 5-4 5-2zm0 23-5 4-2 7v13l4 8 7 1 3-5 1-5v-17l-3-5z" fill="#FDFDFD"/>
<path transform="translate(1300,548)" d="m0 0h33l12 3 10 6 7 7 4 10 3 14v8l-4 11-7 10-9 8-11 5-5 1h-32l-1-1zm22 16-3 1-1 4v40l2 4h9l11-4 6-5 4-8 1-4v-8l-2-7-6-7-12-6z" fill="#FDFDFD"/>
<path transform="translate(757,548)" d="m0 0h18l1 1 1 49 2 9 4 4 3 1h9l5-3h2l2-10 1-51h18v51l-2 13-7 10-9 8-2 1h-26l-12-11-7-14-2-14z" fill="#FDFDFD"/>
<path transform="translate(1393,547)" d="m0 0h17l10 4 6 5 2 5-1 6-3 3-3 1h-7l-7-6-2-1h-9l-5 4v8l17 4 11 4 8 6 4 8 1 4v7l-4 9-7 8-5 5h-28l-13-11-3-3 1-8 6-7 5 1 11 8 5 2h7l5-5-1-5-12-5-15-5-8-6-3-6-1-5v-7l4-10 4-5 7-5z" fill="#FDFDFD"/>
<path transform="translate(620,548)" d="m0 0h24l5 10 12 31 13 35 1 7h-15l-9-17h-16l-15 1-4 8-3 8h-15l3-16 13-34 7-17 1-7zm14 25-4 13-3 11 1 1h17l-3-12-6-12z" fill="#FDFDFD"/>
<path transform="translate(542,548)" d="m0 0h48l1 1v13l-1 1-29 2-1 15 13-1h13l1 3-2 13h-24v17l29 1 1 1-1 16-1 1h-47z" fill="#FDFDFD"/>
<path transform="translate(1026,547)" d="m0 0 47 1 2 1v8l-2 7h-29v16l26-1-1 14-1 2h-24v18l28-1 2 3 1 14-1 2h-48l-1-34v-47z" fill="#FDFDFD"/>
<path transform="translate(1165,548)" d="m0 0h48v14l-5 2-25 1v14h25l1 1v14l-2 1-24 1v14l1 2h28l1 1v18h-48z" fill="#FDFDFD"/>
<path transform="translate(831,548)" d="m0 0h47l1 1v13l-1 1-29 2v13l1 1h24l1 1-1 14-1 1-18 1-6 1-1 15 30 1 1 9v9h-48z" fill="#FDFDFD"/>
<path transform="translate(1042,281)" d="m0 0h22l12 2 7 6 5 9v2l-39 1 5 16h27l-2 5-7 10-3 1h-14l-4 10-14 15-8 4-10 1 2-6 5-12 2-7 1-18-2-17-5-17v-3l5-1z" fill="#FDFDFD"/>
<path transform="translate(484,83)" d="m0 0 10 1 18 6 18 8 14 8 22 14 22 13 18 8 14 4 12 1 6-3 1-7-4-12 7 1 8 5 6 5 2 4v6l-6 8-7 6-8 3h-18l-16-4-12-5-18-11-16-12-15-12-16-12-22-14-20-8z" fill="#FDFDFD"/>
<path transform="translate(967,548)" d="m0 0h21l1 1-1 64 31-1-1 15-1 4h-48v-74z" fill="#FDFDFD"/>
<path transform="translate(485,548)" d="m0 0h19l1 64h29l1 1-1 18h-48v-67z" fill="#FDFDFD"/>
<path transform="translate(1600,569)" d="m0 0 4 1-1 7-7 11-2 7-1 10-2 2h-5l-2-3-4-18-4-6h-3l-4 8-1 9 5 7-2 3h-7l-5-5-4-6-2-1-1 12-6 1-3-2-1-7v-22l2-6 1-1h18l7 5 3-5 7 1 9 9 3-3 3-6zm-47 8-2 3 1 8 2 1 7-4 1-3-4-5z" fill="#FDFDFD"/>
<path transform="translate(1452,570)" d="m0 0h48v4l-5 6-1 4-1 22-4 2-5-1-1-1v-18l-2-8-7-4-4 1-2 1-11 1-4 8v12l1 1 7-1 1-3-4-4-3-1v-6l2-3 9 3 5 5v11l-5 6-2 1h-11l-5-3-2-3v-27l3-4z" fill="#FDFDFD"/>
<path transform="translate(902,570)" d="m0 0h14l6 3 5 6 2 5v9l-3 6-8 7-5 2h-9l-7-3-5-6-2-6v-9l4-9 5-4zm3 8-5 5v11l3 4 7 1 6-3 2-5-1-9-5-4z" fill="#FDFDFD"/>
<path transform="translate(1519,569)" d="m0 0 9 1 7 6 3 8-1 13-4 6-5 4-3 1h-12l-6-4-5-8-1-3v-8l3-8 4-5 4-2zm-3 9-5 6v9l5 6 4 1 5-2 3-4v-12l-4-4z" fill="#FDFDFD"/>
<path transform="translate(450,568)" d="m0 0 5 2 5 8 9 25 1 6-5-1-9-7-6-1-6 4-4 3-6 1 1-5 10-27 3-6zm0 17v3h3l-1-3z" fill="#FDFDFD"/>
<path transform="translate(934,570)" d="m0 0h19l3 2-1 5-11 1-2 1v6l10 3-1 5-9 3-1 9-2 2h-8v-35z" fill="#FDFDFD"/>
<path transform="translate(1849,163)" d="m0 0h7l4 2 1 4-3 4-6 1-5-3-1-4z" fill="#FDFDFD"/>
<path transform="translate(1649,97)" d="m0 0 4 2 3 5v6l-2 1h-7l-3-3 1-5z" fill="#FDFDFD"/>
<path transform="translate(1320,370)" d="m0 0h5l3 4v6l-3 2-7-1-3-4 2-5z" fill="#FDFDFD"/>
<path transform="translate(310,400)" d="m0 0h7l2 3-1 6-2 2h-7l-3-4 1-5z" fill="#FDFDFD"/>
<path transform="translate(129,327)" d="m0 0 5 1 5 5-3 5-8 1-2-3 1-8z" fill="#FDFDFD"/>
<path transform="translate(328,93)" d="m0 0 5 1 2 8-2 3h-8l-2-2 1-6z" fill="#FDFDFD"/>
<path transform="translate(1537,139)" d="m0 0h9l4 2-1 5-3 3-7-1-3-4z" fill="#FDFDFD"/>
<path transform="translate(899,412)" d="m0 0 5 1 1 1v7l-5 3-5-2-1-5z" fill="#FDFDFD"/>
<path transform="translate(892,437)" d="m0 0 5 1 1 1v5l-4 2-5-5 1-3z" fill="#FDFDFD"/>
<path transform="translate(1662,97)" d="m0 0 7 1-1 5-3 1-3-3z" fill="#FDFDFD"/>
<path transform="translate(286,407)" d="m0 0 3 2-1 4-4 3-2-1 1-5z" fill="#FDFDFD"/>
<path transform="translate(613,123)" d="m0 0 5 1 1 8-4-2-2-3z" fill="#FDFDFD"/>
<path transform="translate(343,74)" d="m0 0 4 1 1 5h-6l-1-4z" fill="#FDFDFD"/>
<path transform="translate(1877,152)" d="m0 0 4 1-3 5-3 1-2-4z" fill="#FDFDFD"/>
<path transform="translate(1353,388)" d="m0 0 2 2 1 8h-4z" fill="#FDFDFD"/>
<path transform="translate(144,350)" d="m0 0 9 1v3h-8z" fill="#FDFDFD"/>
<path transform="translate(1101,416)" d="m0 0 3 2-1 5-5-2 1-4z" fill="#FDFDFD"/>
<path transform="translate(1315,356)" d="m0 0 4 1 1 4-5 1-1-5z" fill="#FDFDFD"/>
<path transform="translate(440,156)" d="m0 0 4 4-1 4-4-1z" fill="#FDFDFD"/>
<path transform="translate(304,83)" d="m0 0h5v4h-7v-3z" fill="#FDFDFD"/>
<path transform="translate(279,417)" d="m0 0h2l-2 4-3 3h-4l2-4z" fill="#FDFDFD"/>
<path transform="translate(1150,387)" d="m0 0 5 1v3l-4 1-3-3z" fill="#FDFDFD"/>
<path transform="translate(1568,148)" d="m0 0h3l1 5-5 1-1-3z" fill="#FDFDFD"/>
<path transform="translate(1582,142)" d="m0 0h6l-2 5-4-1z" fill="#FDFDFD"/>
<path transform="translate(128,351)" d="m0 0h5l1 4h-5l-2-3z" fill="#FDFDFD"/>
<path transform="translate(1139,402)" d="m0 0h8l-1 3h-6z" fill="#FDFDFD"/>
<path transform="translate(879,425)" d="m0 0h6v3h-6z" fill="#FDFDFD"/>
<path transform="translate(281,416)" d="m0 0" fill="#FDFDFD"/>
</svg>
