<?xml version="1.0" encoding="UTF-8"?>
<svg version="1.1" viewBox="0 0 1400 920" width="350" height="230" xmlns="http://www.w3.org/2000/svg">
<path transform="translate(514)" d="m0 0h372l-8 16-14 24-15 26-8 13-82 1h-13v197l-1 1-10-1-15-4-21-8-22-12-15-10-7-5-1-2-1-156h-90l-5-2-10-17-15-26-14-24-5-9z" fill="#FDFDFD"/>
<path transform="translate(1079,522)" d="m0 0h44l1 1v40l-1 30 52-14 2-1 1-56h217l-2 5-14 24-6 10-2 1h-48v165l-7 3-38 10-1-1v-177h-71l15 26 3 6v99l-1 1h-45v-73l-42 11-11 3-1 21v37l-1 1h-44l-1-6v-165z" fill="#FDFDFD"/>
<path transform="translate(5,522)" d="m0 0h283l1 1v38l-2 1h-65l-1 26 54-1 1 1v37h-55v29h68l-1 6-12 33-1 1h-99l-1-2v-97l6-11 12-21h-70v176l-3 1-41-11-2-1v-166h-49l-3-3-14-25-6-10z" fill="#FDFDFD"/>
<path transform="translate(583,119)" d="m0 0h27l11 3 1 3h-23l-15 3-9 5-5 4-5 9-1 4v12l4 14 8 15 10 14 10 11 7 8 14 13 10 8 19 14 17 11 23 13 19 9 22 8 21 5 6 1h30l10-3 10-6 4-5 3-7v-16l-5-14-8-14-7-10v-3l5 2 8 7 7 7 11 15 10 17 4 1-3-18-6-14-11-18-13-16-9-10-17-17-1-4 7 2 15 10 13 10 15 14 10 11 11 15 8 13 8 16 6 18 2 13v13l-3 14-7 14-9 10-9 7-15 7-16 4-18 2h-16l-22-2-25-5-27-8-32-13-20-10-23-14-16-12-12-11-3-4v-2l6 1 16 9 23 12 20 9 28 10 19 5 20 3h8l-2-4-20-8-27-11-26-13-23-14-17-12-13-10-13-11-15-14-11-12-13-17-8-13-6-12-5-15-1-6v-12l4-13 8-11 10-7 13-5z" fill="#FDFDFD"/>
<path transform="translate(483,522)" d="m0 0h40l5 5 8 12 32 46 2 1 2-5 12-17 10-14 13-19 7-9h38l2 1v170l-1 1h-41l-1-1-1-93-12 16-10 14-14 19-4 6-4-1-9-13-13-18-14-19-5-5 1 2v92l-1 1h-42z" fill="#FDFDFD"/>
<path transform="translate(962,519)" d="m0 0h21l18 3 15 5 11 6 10 8 6 7 8 14 1 5-40 11h-3l-6-8-9-6-10-3-13-1-12 2-10 5-6 5-6 10-4 13-1 8v10l3 16 7 14 8 7 10 4 12 2 13-1 12-4 8-6 6-8 4-10h-47l2-5 10-18 7-12h70l1 4v23l-4 20-5 14-9 14-9 10-9 7-16 8-16 4-7 1h-20l-17-3-16-6-13-8-11-10-9-13-6-13-4-14-1-5-1-21 2-17 5-17 9-17 12-13 10-8 16-8 16-4z" fill="#FDFDFD"/>
<path transform="translate(1137,737)" d="m0 0h25l18 3 11 4 10 5 10 9 5 6 5 10v5l-37 10-5 1-6-9-8-5-9-2h-14l-8 3-5 4-2 7 3 6 10 5 52 12 16 8 8 8 6 11 2 9v15l-4 16-7 12-9 9-13 8-15 5-10 2h-31l-16-3-13-5-10-6-9-8-9-14-5-12v-2l16-5 26-7 2 1 4 9 7 8 10 5 8 2h13l10-3 6-5 2-4v-8l-4-6-14-5-37-8-14-5-11-7-9-10-5-12-1-4v-20l4-12 6-10 8-8 12-7 17-5z" fill="#FDFDFD"/>
<path transform="translate(337,522)" d="m0 0h74l4 10 24 74 18 56 9 27v5h-45l-6-19-4-15-9 1-51 14h-2l-2 10-3 8-1 1h-44l1-6 12-36 20-62 15-47-3-7-7-11zm44 42-12 42-8 27 8-1 30-8 1-3-14-48-3-9z" fill="#FDFDFD"/>
<path transform="translate(345,739)" d="m0 0h75l4 9 20 62 16 50 15 46 1 5-7 1h-38l-3-8-8-27-17 4-41 11h-3l-3 11-2 8-2 1h-34l-10-1 12-37 14-44 11-33 11-35-1-6-10-16zm46 43-6 19-14 48v2l10-2 26-7 2-1-1-7-14-49-1-3z" fill="#FDFDFD"/>
<path transform="translate(966,737)" d="m0 0h24l14 2 15 5 14 8 9 8 9 13 6 13v3l-40 11-4-1-5-8-2-4-4-2-9-5-10-2h-11l-12 3-10 6-7 9-4 9-2 8-1 15 2 14 4 11 6 8 7 6 8 4 7 2h18l12-4 8-6 4-5 3-5 2-6 17 4 25 7-1 6-5 12-8 12-10 10-10 6-8 4-13 4-13 2h-29l-15-3-13-5-11-6-10-9-7-7-8-14-6-16-2-8-1-9v-21l2-13 4-14 8-16 9-11 10-9 14-8 13-5z" fill="#FDFDFD"/>
<path transform="translate(554,737)" d="m0 0h25l17 3 12 4 14 8 12 12 8 14 4 10-7 3-33 9-4-1-6-9-8-7-10-4-6-1h-12l-12 3-10 7-6 8-4 8-3 14v14l3 14 6 12 4 5 11 7 10 3h18l12-4 9-7 5-7 3-8 32 8 9 3 1 2-6 15-6 10-9 10-11 8-16 7-20 4h-29l-15-3-14-5-14-9-10-9-7-10-7-14-4-13-2-11v-27l4-19 7-16 9-13 10-10 16-10 18-6z" fill="#FDFDFD"/>
<path transform="translate(686,522)" d="m0 0h108l1 1v37l-2 2h-61v20l-1 15 57-1v4l-15 26-6 10h-35v57l-2 1h-44z" fill="#FDFDFD"/>
<path transform="translate(687,739)" d="m0 0h115l-1 4-12 21-9 15-34 1v130l-3 2h-42l-1-2v-131h-34l-9-15-12-21-1-3z" fill="#FDFDFD"/>
<path transform="translate(166,739)" d="m0 0h159l-2 5-14 25-6 10-34 1v130l-1 1-39 1h-5l-1-1v-132h-34l-8-13-15-26z" fill="#FDFDFD"/>
<path transform="translate(818,522)" d="m0 0h46v171l-1 1h-44l-1-1z" fill="#FDFDFD"/>
<path transform="translate(818,739)" d="m0 0h45l1 1v171l-29 1h-16l-1-1z" fill="#FDFDFD"/>
<path transform="translate(1234,739)" d="m0 0 5 1 4 5 2 4v-9l5-1v12l-3 1h-9l-2-1z" fill="#FDFDFD"/>
<path transform="translate(1225,739)" d="m0 0 7 1-1 7 1 4-4 1-3-9z" fill="#FDFDFD"/>
</svg>
