<?xml version="1.0" encoding="UTF-8"?>
<svg version="1.1" viewBox="0 0 1400 1000" width="350" height="251" xmlns="http://www.w3.org/2000/svg">
<path transform="translate(485,626)" d="m0 0h63l3 9 19 79 7 30v2l2-1 6-27 17-70 5-20 1-2h63v169h-37l-1-138-16 64-17 69-2 5h-40l-3-7-20-81-10-42-2-9h-2l1 3v136h-37l-1-3v-165z" fill="#FEFEFE"/>
<path transform="translate(1037,417)" d="m0 0 54 1 3 6 14 43 20 59 2 5v-112l1-1h36l1 1v167l-4 1h-49l-3-5-17-50-21-63-1-2v119l-2 1h-35v-169z" fill="#FEFEFE"/>
<path transform="translate(1099,626)" d="m0 0h55l4 10 14 43 18 53 3 7v-112l1-1h36l1 5v163l-1 1h-53l-6-16-17-50-12-36-5-16v-2h-2l1 119-1 1h-36z" fill="#FEFEFE"/>
<path transform="translate(718,417)" d="m0 0h91l15 1 7 4 14 14 5 9v51l-4 8-16 16-5 3-8 1 2 4 21 28 9 13 1 2v15l-1 1h-29l-5-5-10-14-28-38-4-5-15-1-1 3v59l-2 1h-36l-1-1zm33 36 2 4 2 1 1 5v24l1 1h45l6-3 4-7v-16l-5-7-2-1-18-1z" fill="#FEFEFE"/>
<path transform="translate(873,834)" d="m0 0h104l6 3 10 9 9 10 2 4v55l-6 8-15 15-5 2-7 1 4 6 13 17 12 16 5 8v11l-1 5h-31l-7-11-10-13-14-19-13-18-4-2h-13l-1 63h-38l-1-30v-78zm32 36 3 4h2l1 31h43l7-2 4-4 2-10v-7l-3-7-4-4-3-1z" fill="#FEFEFE"/>
<path transform="translate(572,834)" d="m0 0h79l8 5 22 22 4 8v100l-3 6-12 13-5 5h-2l-2 4-9 7h-81l-15-14-12-12-5-8v-102l4-7 25-25zm0 36 2 4 2 2 1 81 7 8 4 2h47l7-4 4-5v-79l-8-8z" fill="#FEFEFE"/>
<path transform="translate(579,417)" d="m0 0h72l8 2 10 9 16 16 4 7v102l-6 9-22 22-3 2-5 1h-74l-7-3-12-11-12-12-4-6-1-3v-101l6-9 20-20 6-4zm-3 36 2 4 3 1v76l1 8 7 7 3 1h49l8-6 2-5v-75l-6-8-4-2z" fill="#FEFEFE"/>
<path transform="translate(956,626)" d="m0 0h81l6 4 12 12 2 1v2h2l9 11 2 4v100l-3 6-9 10-16 16-6 3h-79l-5-3-25-25-3-6-1-7v-89l2-8 8-10 4-2v-2h2l2-4 7-7zm0 36 3 4h2l1 83 7 8 2 1 38 1 13-1 7-5 2-4 1-75-4-7-5-4-3-1z" fill="#FEFEFE"/>
<path transform="translate(1290,626)" d="m0 0h77l6 4 27 27-6 7-7 6-5 5-4 5-4 3-19-19-2-1-60-1-3-1 1 4 3 1 1 2 1 18 3 2 36 5 45 6 7 2 7 6 2 4 1 9-1 42-8 11-18 18-8 4h-77l-6-4-26-26 1-5 10-9 13-13 7 6 13 13 2 1h49l6-4 3-4 1-3v-14l-36-5-47-6-9-3-5-4-3-5-1-5v-44l3-6 9-10 16-16z" fill="#FEFEFE"/>
<path transform="translate(160,626)" d="m0 0h37l1 1v65h55v-66h38l1 2-1 167h-38v-66h-55v65l-1 1h-37l-1-6v-162z" fill="#FEFEFE"/>
<path transform="translate(358,626)" d="m0 0h60l32 103 16 52 3 10v4h-39l-4-10-5-17v-5l3-3-1-2h-70l-4-1 5 7-2 9-7 22h-39l1-5 38-123 12-39zm28 28-7 24-12 41v3h40l-1-7-17-59-1-2z" fill="#FEFEFE"/>
<path transform="translate(283,417)" d="m0 0h55l3 1 23 74 16 52 11 35 2 7-5 1h-35l-3-7-7-23 1-3 3-2 1-3h-76l5 6-2 9-6 21-2 2h-37l-1-3 16-51 20-65 13-43 3-7zm26 29-6 19-14 49h41l-1-7-15-51-3-10z" fill="#FEFEFE"/>
<path transform="translate(911,417)" d="m0 0h29l29 1 3 8 16 51 25 82 8 25-1 3h-38l-3-5-7-23 1-5 3-2 1-3h-77l5 5-1 9-7 23-2 1h-37l1-6 8-27 17-55 24-78zm26 29-15 53-4 13v2h41l-2-9-17-58z" fill="#FEFEFE"/>
<path transform="translate(712,834)" d="m0 0h37l1 1 1 121 3 5 5 4 4 1h31l7-4 3-4 1-123 1-1h37l1 1v132l-2 6-7 8-18 18-6 5h-66l-11-9-6-7-6-5-9-11-1-2-1-51v-83z" fill="#FEFEFE"/>
<path transform="translate(704,626)" d="m0 0h105l7 4 15 15 4 6 1 8v16l-1 32-8 10-10 10-8 5h-67v63h-38l-1-167zm33 36v2l4 3 1 29h48l6-5 2-7v-11l-3-7-5-4z" fill="#FEFEFE"/>
<path transform="translate(87,417)" d="m0 0 39 1 2 6 17 69 16 63v2h2l2-13 17-69 14-56 3-3h36l1 2-11 42-16 63-16 62-2 1h-61l-3-7-28-110-13-50z" fill="#FEFEFE"/>
<path transform="translate(33,626)" d="m0 0h75l7 4 25 25 1 3-25 25h-3l-7-8-11-11-3-1h-58l5 4v85l-1 3-4 4 5-1 55-1 8-7 8-8 3-4 4 1 24 24-6 7-8 8-5 6-8 7-4 3-3 1h-73l-7-4-20-20-7-9v-103l9-10 5-6h2l2-4 8-8z" fill="#FEFEFE"/>
<path transform="translate(673,239)" d="m0 0h54l6 5 13 17 11 13 10 13 13 16 5 8v67l-4-2-9-10-11-14-13-16-11-14-13-16-22-28-4 1-8 9-13 17-11 13-7 9-11 14-13 16-8 10-9 11-2 1v-70l7-9 13-16 11-14 13-16 11-14z" fill="#FEFEFE"/>
<path transform="translate(525,92)" d="m0 0h54l8 7 13 17 10 12 8 10 11 14 12 15 2 4v38l-10 13-13 16-11 14-13 16-11 14-4 4-18 1h-18l-20-1 6-9 10-12 11-14 9-11 11-14 13-16 8-10 6-8 1-3-8-11-14-17-11-14-13-16-22-28-7-9z" fill="#FEFEFE"/>
<path transform="translate(819,93)" d="m0 0h56l-2 4-13 16-11 14-13 16-11 14-13 16-12 16 4 7 10 12 8 10 13 16 11 14 13 16 11 14 5 7v1l-32 1h-22l-7-6-10-13-9-11-11-14-13-16-13-17-1-2v-37l4-6 13-16 11-14 28-35z" fill="#FEFEFE"/>
<path transform="translate(396,834)" d="m0 0h131l1 34-1 1-51 1 5 5v129h-38l-1-14v-114l3-4h2v-3h-51z" fill="#FEFEFE"/>
<path transform="translate(1204,417)" d="m0 0h85l25 1v34l-51 1v2l4 2v129l-3 1h-35v-128l5-6h-48l-4-1v-34z" fill="#FEFEFE"/>
<path transform="translate(410,417)" d="m0 0h28l9 1v132h77l1 1v35l-1 1h-114l-1-2v-167z" fill="#FEFEFE"/>
<path transform="translate(857,626)" d="m0 0h38v168l-1 1h-37l-1-3v-165z" fill="#FEFEFE"/>
<path transform="translate(616)" d="m0 0 5 5 12 14 11 14 13 16 11 14 13 16 11 14 13 16 22 28v2l-6 1h-48l-5-5-7-8-11-14-13-16-8-10-13-17-1-9v-59z" fill="#FEFEFE"/>
<path transform="translate(440,147)" d="m0 0h33l5 3 7 8 1 4v49l-1 10-7 8-5 3h-33l-6-3-7-9v-60l5-8 5-4zm12 17-7 1v49l4 1h16l2-1v-49l-5-1z" fill="#FEFEFE"/>
<path transform="translate(366,147)" d="m0 0h34l6 4 5 7 1 6v20l-2 6-16 8-21 10-1 5 27 1 12 1 1 1v15l-1 1h-57l-1-1v-30l3-5 16-8 19-9 2-4v-10h-13l-8 1-8 8h-3v-2l-3-1-5-6-2-1 1-5 11-11z" fill="#FEFEFE"/>
<path transform="translate(931,147)" d="m0 0h33l6 4 5 6 1 3v29l-19 10-19 9-2 2v3l29 1 11 1v16l-1 1h-56l-1-1v-30l2-5 27-13 10-5 1-6v-7h-14l-9 2-6 7-4-1-6-7-4-3 2-4 6-7 5-4z" fill="#FEFEFE"/>
<path transform="translate(782)" d="m0 0 3 1v66l-3 6-8 10-7 9h-57l3-5 11-13 10-13 13-16 11-14 9-11 11-14z" fill="#FEFEFE"/>
<path transform="translate(1011,147)" d="m0 0h29l1 3v46l8 1 1 1v14l-2 2-7 1-1 16-1 1h-16l-1-1 1-17h-36v-17l9-20 13-28zm10 18-9 19-5 10v3h15v-32z" fill="#FEFEFE"/>
</svg>
