<?xml version="1.0" encoding="UTF-8"?>
<svg version="1.1" viewBox="0 0 1400 896" width="350" height="224" xmlns="http://www.w3.org/2000/svg">
<path transform="translate(446,282)" d="m0 0h31l17 3 17 5 16 8 11 7 11 9 7 7 13 17 1 5-12 6-23 11-9 5-4-2-10-13-11-9-12-6-16-4h-25l-16 4-13 7-10 9-5 5-8 11-6 15-3 16v13l3 15 4 10 8 13 9 10 9 7 10 5 2-3 10-16 1 4-8 15-7 15-19 39-9 17-11 23-24 50-13 27-9 20-15 32-11 23-9 19-11 25-7 15-13 30-6 15-9 15-10 19-3 1-3-13-16-97v-2l-6 5-9 11-10 11-7 8-11 13-9 11-12 14-10 13-8 10-10 13-7 9-13 11-13 16-3 2 1-9 17-58 14-48 24-82 10-34 10-30 5-5-1 10-8 32v6l10-24 10-25 6-10 12-16 16-24h3l-3 11-10 27-15 43-2 16-8 23-13 36-11 31-9 24-1 4 5-4 12-16 12-14 11-14 11-13 8-10 11-13 12-12 5-7h2l4 36 6 41v5l3-3 8-17 11-25 14-32 12-27 11-25 13-29 11-25 6-7 10-7 10-11 13-18 12-17 8-11v-2l-15-9-14-12-8-8-11-15-8-15-8-22-2-11-1-11v-11l2-15 4-15 7-16 10-18 12-14 7-7 18-13 17-9 19-6z" fill="#FCFCFC"/>
<path transform="translate(757,283)" d="m0 0h63l3 1 6 11 10 13 12 17 13 18 12 17 13 18 14 20 13 18 14 19 3 3v-154l1-1h49l1 1v235h-53l-9-11-12-17-12-16-10-14-28-38-13-18-9-12-13-18-6-8-1 151-1 1h-49l-1-1-1-213-10-20z" fill="#FCFCFC"/>
<path transform="translate(672,5)" d="m0 0h37l17 3 16 5 12 5 14 9 13 11 10 11 10 14-4 4-19 9-20 9-4 2-8-10-7-8-13-9-13-5-10-2h-25l-12 3-16 8-9 7-7 7-9 14-5 13-2 8-1 10 1 15 5 18 6 11 8 10 10 9 13 8 12 4 14 2h13l17-4 14-7 10-8 8-11 4-8 1-6-84-1 2-5 8-16 11-21h120v29l-3 19-6 18-7 14-9 12-11 12-11 9-13 8-18 8-17 4-14 2h-23l-19-3-18-6-16-8-11-7-10-8-11-11-8-11-9-15-8-20-4-18v-29l3-15 5-15 8-16 11-16 9-10 10-9 13-9 15-8 18-6z" fill="#FCFCFC"/>
<path transform="translate(1007,283)" d="m0 0h85l18 2 23 6 18 8 14 9 11 10 6 5 9 11 8 13 7 15 5 17 2 17v11l-2 17-6 21-7 14-10 14-9 10-11 10-18 12-17 7-13 4-19 3h-94l-1-68v-167zm53 48-2 1v43l1 97h24l19-1 11-3 14-7 10-8 8-8 6-10 6-13 2-9v-22l-4-15-6-12-11-13-10-8-16-8-12-3-13-1z" fill="#FCFCFC"/>
<path transform="translate(876,5)" d="m0 0 5 1v146l2 16 4 10 8 11 8 6 12 4h19l10-3 10-6 6-7 6-11 2-11 1-20 1-135h52l1 1v79l-1 79-3 17-5 14-7 14-9 11-8 8-14 9-11 5-16 4-18 2h-15l-21-3-15-5-15-8-12-11-8-9-9-17-6-18-3-21v-91l1-60z" fill="#FCFCFC"/>
<path transform="translate(478,5)" d="m0 0h7l4 8 12 30 18 43 11 28 13 31 15 37 12 29 11 27-1 4h-51l-8-16-12-29-1-1h-94l-2 1-10 28-6 15-5 2h-49l1-6 12-28 9-22 30-72 14-34 12-29 4-9 2-7-8-16-7-11v-2zm-19 69-6 18-16 41-6 14v3l60 1-1-6-13-35-11-29-4-6z" fill="#FCFCFC"/>
<path transform="translate(1292,282)" d="m0 0h30l17 4 15 6 10 7 10 9 7 8 7 11-1 4-17 8-23 11-5 2-6-12-8-8-8-4-7-2h-17l-10 4-6 5-4 9v11l4 8 9 6 9 4 37 10 18 6 13 7 9 7 8 9 6 12 3 11 1 7v17l-3 15-5 12-8 11-4 5-14 11-13 6-18 5-15 2h-20l-14-2-17-5-16-8-11-8-7-7-7-10-5-9 12-5 25-12 6-4 4 1 8 11 1 3 4 2 8 5 9 3 5 1h16l10-3 9-6 4-6 2-8v-7l-3-7-6-7-8-4-26-8-27-8-17-7-11-8-7-7-7-11-4-13-1-5v-22l4-17 6-11 9-11 10-9 14-8 16-5z" fill="#FCFCFC"/>
<path transform="translate(601,283)" d="m0 0h142l1 45-1 1-90 1-1 47 83-1-1 6-8 30-3 8-1 1h-70v52h55l37 1v44l-1 1h-142l-1-2v-233z" fill="#FCFCFC"/>
<path transform="translate(181,283)" d="m0 0h143l1 3-1 43h-91v48h83l-2 10-9 32-2 2-69 1v50l90 2v45h-142l-1-1z" fill="#FCFCFC"/>
<path transform="translate(211,6)" d="m0 0h112l1 1 1 43-2 2h-90l1 47h83l-3 11-9 31-3 3h-68v52h90l1 4v40l-1 1h-143v-234z" fill="#FCFCFC"/>
<path transform="translate(1113,6)" d="m0 0h75l1 1v44l-1 1h-90v48l9-1h74l-2 9-7 26-4 9-1 1h-69v52h90l1 1v44l-2 1h-140l-1-1v-234z" fill="#FCFCFC"/>
<path transform="translate(789,541)" d="m0 0h21l22 2 21 5 16 7 11 8 6 9 3 10-1 13-4 10-6 10-11 13-13 12-19 14-17 11-22 12-32 16-21 11-13 5h-3l5 5 14 11 16 13 6 5 5 5 11 10 17 13 12 10 16 12 14 11 30 23 13 10 3 3v4l-5-1-15-10-13-9-15-10-14-7-9-2-18-11-10-7-13-8-4-1 5 5 11 8 8 7 1 5-7-2-17-13-11-8-13-10-21-16-17-13-19-14h-2l-12 34-20 55-3 8-3-1-9-15-9-9 1-6 10-26 13-35 8-20 1-5-7-7-8-7-1-4h14l11-6 6-12 12-31 4-12 1-6h-12l-21 3-7 2h-7l3-2 24-9 24-7 25-6 4-1-2 5-7 8-2 6 9 2 1 3-15 36-12 31v2l7-1 23-13 29-17 30-20 19-14 13-12 7-7 7-12 2-9-3-7-8-6-15-5-16-3-29-2h-39l-42 2-43 4-35 4-34 5-11 2 1-2 14-5 48-12 49-10 41-7 41-5z" fill="#FCFCFC"/>
<path transform="translate(3,283)" d="m0 0h64v190h97l-3 9-10 36-1 1h-146l2-6 8-15v-193l-8-16z" fill="#FCFCFC"/>
<path transform="translate(4,6)" d="m0 0h63v190h96l-1 5-9 32-2 7-1 1-145 1-3-2 4-5 8-16v-189l-5-13-5-9z" fill="#FCFCFC"/>
<path transform="translate(460,391)" d="m0 0h119l1 1v22l-2 19-4 15-7 16-10 16-9 10-10 10-15 10-19 9-19 5-12 2h-24l-16-2-5-1 1-9 9-35 2-3 17 2h9l14-2 10-4 11-6 10-8 10-16 3-9h-85l2-5 8-16 9-19z" fill="#FCFCFC"/>
<path transform="translate(1175,564)" d="m0 0h72l21 1 1 2-82 5-41 4-1 4-12 2-52 6-5 12-15 42-34 102-3 5-5-2-5-6 1-9 4-8-10 6h-3l2-9 12-36 14-38 10-27 11-28-16 2-40 7-17 4-2 1-6 17-11 26 23-3 16-1 3 2-9 7-13 9-16 6-12 4-5 12-15 43-9 25-3 5h-2l-8-16-5-7 1-7 7-18 11-31-1-7-6-6 1-4 15-6 4-6 11-28 3-7v-7l-16-16 1-3 38-7 52-7 51-5 37-3z" fill="#FCFCFC"/>
<path transform="translate(559,626)" d="m0 0h24l14 3 12 5 9 7 4 6 2 7v15l-3 12-8 16-7 11-13 15-12 12-14 11-15 10-24 13-26 11-35 13-23 7-7 1 1-3 13-5 7-4 20-10 9-5h2l-4-5-4-2 1-8 10-24 13-30 18-40 8-15v-4l-6-1h-11l-21 3-6 1 4-4 10-4 33-10zm-13 17 1 3 4 1-1 8-11 24-15 33-13 32-7 17-1 5 9-3 17-10 14-10 10-8 10-9 12-12 11-14 6-9 6-14 2-11-1-8-4-7-10-6-10-2z" fill="#FCFCFC"/>
<path transform="translate(1251,70)" d="m0 0h23l15 5 11 8 8 8 7 12 4 14v15l-4 13-6 11-7 8-9 7-10 5-16 4h-11l-14-3-10-5-10-8-6-7-5-8-5-13-1-7v-8l3-14 7-14 9-10 10-7 12-5zm3 25-10 5-8 9-4 10v12l6 12 8 7 10 4h13l8-3 9-7 6-12v-15l-5-10-7-7-8-4-3-1z" fill="#FCFCFC"/>
<path transform="translate(1330,71)" d="m0 0h67v23l-39 1-1 22h34l1 2-3 8-3 13-28 1v34l-1 1h-27z" fill="#FCFCFC"/>
<path transform="translate(459,664)" d="m0 0 2 1-1 4-7 11-15 27-8 15-11 23-12 23-1 3 13-4 31-11 9-3v3l-11 7-5 3-8 2 9 3 1 5-5 4-12 5-42 13-17 5-2-1 5-2v-2l6-3 7-1v-2l-6-6v-6l12-25 19-41 15-31 5-8 14-7z" fill="#FCFCFC"/>
<path transform="translate(383,688)" d="m0 0h8l-4 7-8 13-11 21-7 16-5 11-8 20-8 19-5 13-4 4-5-3-1-2-1-11h-2l-2 4-4 1-1-4 10-27 16-38 9-20 6-9 10-8 10-5z" fill="#FCFCFC"/>
<path transform="translate(895,640)" d="m0 0h5l1 4-7 14-11 27-17 47-7 24-1 2-3-1-3-8-9 1-5-3 1-6 17-49 9-24 3-5 11-6 10-14z" fill="#FCFCFC"/>
<path transform="translate(1306,561)" d="m0 0h11l5 3 1 8 1 2-5 1-2-1 1-11h-8l1 11-4 1-1-1z" fill="#FCFCFC"/>
<path transform="translate(1327,563)" d="m0 0h8l2 3-3 6-3 1-1-3-1 3h-3v-9z" fill="#FCFCFC"/>
<path transform="translate(800,802)" d="m0 0 4 1v3l-6-2z" fill="#FCFCFC"/>
<path transform="translate(1336,570)" d="m0 0h2l-1 5-2-3z" fill="#FCFCFC"/>
<path transform="translate(486,649)" d="m0 0" fill="#FCFCFC"/>
<path transform="translate(1399,88)" d="m0 0" fill="#FCFCFC"/>
</svg>
